<?xml version="1.0" encoding="UTF-8"?>
<!DOCTYPE svg PUBLIC "-//W3C//DTD SVG 1.1//EN" "http://www.w3.org/Graphics/SVG/1.1/DTD/svg11.dtd">
<!-- Creator: CorelDRAW -->
<svg xmlns="http://www.w3.org/2000/svg" xml:space="preserve" width="2010px" height="435px" style="shape-rendering:geometricPrecision; text-rendering:geometricPrecision; image-rendering:optimizeQuality; fill-rule:evenodd; clip-rule:evenodd"
viewBox="0 0 2010 435"
 xmlns:xlink="http://www.w3.org/1999/xlink">
 <defs>
  <style type="text/css">
   <![CDATA[
    .fil4 {fill:none}
    .fil8 {fill:#005B00}
    .fil9 {fill:#E6E6E6}
    .fil7 {fill:#EE7837}
    .fil5 {fill:red}
    .fil6 {fill:#FFE330}
    .fil3 {fill:white}
    .fil1 {fill:#005B00;fill-rule:nonzero}
    .fil10 {fill:url(#id3)}
    .fil2 {fill:url(#id4)}
    .fil0 {fill:url(#id5);fill-rule:nonzero}
   ]]>
  </style>
      <clipPath id="id0">
       <path d="M178.429 303.495c-11.2039,-1.81063 -22.4209,-3.67913 -31.5413,-5.32913l14.9858 -19.311 0.114567 0.00708661 13.402 -15.8528c2.66811,-3.34252 4.95591,-4.48465 7.31811,-7.64528l26.0705 -35.1661c3.63661,-5.15669 5.46969,-10.2827 11.5594,-18.4843 5.77323,-7.7752 11.3043,-23.3575 15.2634,-32.5016 6.28937,-14.5287 9.25039,-37.7693 10.9571,-54.3343 -2.80512,1.2378 -2.99646,1.12323 -5.40472,3.14055 -4.35472,3.64606 -8.59488,11.4307 -13.1327,17.4437l-2.66575 -7.42795c-3.86811,1.70787 -8.28071,7.86614 -10.5579,12.678 -1.13031,2.39173 -2.67047,6.01181 -2.88189,8.54646 -0.277559,3.29646 0.772441,6.67087 -0.943701,10.0323l0.788976 5.36811c-4.74331,-3.04606 -3.35079,-1.65827 -4.8815,-4.42323l-0.856299 -1.47638c-1.47992,-1.28976 -2.28425,-4.7315 -2.79331,-6.77835 -3.84213,-15.4547 0.373228,-37.1327 16.4705,-47.7094 4.79409,-3.14882 4.91575,-1.7185 6.72874,-4.86969 -4.31693,-0.395669 -4.37835,1.0878 -10.4705,4.35354l-11.0185 4.77874 -1.24724 -4.19646c-10.3122,9.87992 -6.09331,-5.17441 -21.0307,29.0894 -9.54803,-2.51457 -5.44488,-22.7091 -4.63228,-24.7098l13.5839 -20.4224c-2.76732,0.15 -10.389,3.71811 -14.8535,5.33031 4.09252,-20.524 40.8709,-23.2323 48.9898,-19.963l18.5374 9.01181c-6.15118,-13.9394 -29.4827,-16.0854 -41.6764,-17.2878 2.52756,-9.59409 28.7657,-12.7039 28.9417,-12.7866 -2.89606,-2.53465 -5.58425,-1.95945 -9.76417,-2.54409 2.38228,-3.00354 2.74843,-4.41732 7.06417,-5.12362 3.74646,-0.614173 6.38504,0.770079 9.71693,2.52874 3.14882,0.0425197 5.55236,2.01378 8.09173,3.97677 5.39764,4.17283 10.1362,15.7134 13.1587,22.0488 2.67638,-6.26811 5.24528,-10.8295 10.2059,-14.3858l5.26417 -3.34016c10.8626,-6.09685 19.8402,-4.11024 29.5299,1.42559 8.37992,4.78701 7.15984,4.75984 11.1886,13.2874 -14.8181,-2.6126 -15.7228,-6.07677 -30.7299,-0.45l9.29764 3.62835 -0.509055 2.89134c-8.58898,0.467717 -10.187,2.11535 -16.9524,5.9563 6.50787,0.596457 19.937,-9.50787 38.8063,5.77795 5.20984,4.2189 7.42205,6.75354 11.2299,13.2591 1.61102,2.75315 2.45669,5.3622 3.43465,8.58189 1.28386,4.22717 1.73268,4.96654 0.738189,8.77441 -1.70433,0.462992 -3.77244,-2.13189 -7.99488,-5.38583 0.152362,2.80984 1.04173,5.53346 1.54843,8.20866 0.564567,2.97756 0.713386,5.81575 0.734646,9.6248l-2.22638 16.0713c-0.220866,0.993307 -0.314173,1.5378 -0.705118,2.47323 -1.08661,2.59016 0.0933071,0.69685 -1.08898,1.65236l-2.39882 3.74882 -1.84843 -2.2063 -0.542126 -2.07165c-0.0425197,-0.19252 -0.103937,-0.510236 -0.15,-0.725197 -0.26811,-1.26614 -0.314173,-1.95236 -0.786614,-3.66614l-7.16339 -17.7992 -1.01929 5.78386c-2.93976,-0.780709 -1.82362,-0.31063 -3.68622,-1.64528 0.322441,3.71102 6.21614,12.998 6.5563,14.8429l-0.598819 19.0063c-3.50669,-1.63228 -3.5374,-4.78701 -8.73307,-12.4724 -2.69055,15.2622 -7.22953,21.6969 -14.5205,32.3528 -2.14488,3.1311 -4.28268,6.27874 -7.38425,7.32756 -1.93346,1.1563 -4.87795,3.49134 -6.62244,4.98307l-4.40669 1.20945c1.93937,-10.9972 6.6378,-7.91457 8.33031,-30.3343l-8.22165 1.53189 3.11575 -23.3031c-4.27559,1.88622 0.219685,1.00748 -7.59803,3.63071 -0.661417,-2.36457 -0.227953,-5.94094 -0.255118,-8.27126 -0.100394,-8.57126 -2.12008,-13.8862 -4.28504,-22.3465 -1.78583,10.1291 -1.57205,18.8102 -2.41299,23.5193l-1.53189 4.72913c-0.540945,1.97244 -0.831496,4.58622 -1.18346,6.64724 -3.57992,21.0071 -15.3768,43.9772 -23.7744,62.5902 -1.64055,3.6378 -3.18307,6.09803 -4.60394,9.11102 -1.62402,3.44409 -2.48858,6.14646 -4.31693,9.52087 -7.98189,14.7295 -15.4346,30.4949 -26.1106,43.5543l0.549213 0.0814961 -17.5594 22.6287z"/>
      </clipPath>
      <clipPath id="id1">
       <path d="M245.562 114.868c0.775984,0.350787 0.514961,1.28858 1.74803,1.91339 2.15787,0.566929 8.11299,-0.479528 10.128,-1.14094 1.43976,-0.472441 2.80866,-1.06299 3.99685,-1.74449 4.00157,-2.29606 6.26575,-4.84724 7.21654,-9.99449 0.66378,-3.59409 0.174803,-6.99567 -0.956693,-10.0417 -0.101575,-0.103937 -0.0661417,-0.0744094 -0.185433,-0.229134 -1.4315,-1.86969 -1.45512,-1.45748 -2.76732,-1.0122 -0.820866,-2.30787 -0.360236,-1.53425 -1.31929,-2.67165 -0.152362,-0.218504 -0.174803,-0.415748 -0.298819,-0.627165 -0.564567,-0.964961 -2.85354,-1.81772 -3.46181,-2.28898 -3.62953,-1.13031 -8.23701,-0.00590551 -11.3362,1.34291 -7.60866,3.31181 -8.85,10.637 -7.8874,18.2929 0.262205,2.08228 0.454724,3.78898 1.54961,5.12835 0.957874,1.17047 3.1689,2.12008 3.57402,3.07323z"/>
      </clipPath>
     <clipPath id="id2">
      <path d="M38.5736 35.1461c1.19764,59.8323 33.2315,95.4248 85.728,117.67 42.3213,17.9327 80.0811,54.2776 54.1264,150.679 -72.2256,-3.07323 -117.077,-21.4382 -143.717,-47.2429 2.50394,-4.19646 7.19173,-6.25276 11.8287,-19.0937 3.60709,-9.98976 0.9,-12.2126 5.67756,-15.0862 6.6626,-4.00866 7.24134,-6.70512 10.0358,-10.239l16.5579 3.71811c2.10354,0.711024 6.7937,6.62362 14.5795,2.52992 1.60157,-0.840945 1.75157,-1.18937 3.44055,-1.82244 1.45276,-0.544488 2.20157,-0.94252 3.2185,-1.68425 2.03504,-1.48583 3.36496,-2.80748 4.57913,-5.19213 1.19173,-2.33386 6.34961,-8.10236 5.88425,-13.8378 -0.647244,-8.01378 -18.1925,-10.5614 -23.3551,-16.8307 -1.62992,-1.98071 -2.97283,-3.90709 -4.57087,-5.59134 -3.53858,-3.72992 -5.35512,-7.05118 -8.79803,-11.1508l-4.4126 -5.1378 2.46732 -9.77717c0.102756,-2.74961 -0.255118,-8.52756 -2.60787,-9.44409 -3.26693,-1.27559 -4.0689,4.50236 -4.93819,6.62126 -4.1185,10.0453 -6.48898,8.31142 -9.75827,8.13425 -10.4717,-0.566929 -10.1787,2.38465 -14.2417,-3.29764 -4.65,-6.50787 -3.10157,-11.7638 -5.5689,-12.7594 -2.25,-0.907087 -2.85945,0.871654 -3.74764,1.57087 -3.42402,10.8224 -3.20551,7.88268 0.911811,20.7591 -6.30236,-0.638976 -9.50197,-2.03268 -15.2846,-4.03346 -3.62717,2.55945 -2.17205,11.4319 -0.444094,14.1213l2.93031 3.50787c-9.1252,2.67638 -12.8953,4.23425 -18.5622,5.85354 -4.50709,-70.0961 38.035,-143.302 38.0409,-142.944z"/>
     </clipPath>
  <linearGradient id="id3" gradientUnits="userSpaceOnUse" x1="809.287" y1="335.491" x2="99.6354" y2="335.491">
   <stop offset="0" style="stop-color:#005B00"/>
   <stop offset="1" style="stop-color:#A6D4AE"/>
  </linearGradient>
  <linearGradient id="id4" gradientUnits="userSpaceOnUse" x1="174.485" y1="286.534" x2="304.267" y2="61.7445">
   <stop offset="0" style="stop-color:#FFE330"/>
   <stop offset="0.74902" style="stop-color:#FFCF30"/>
   <stop offset="1" style="stop-color:#FFBA30"/>
  </linearGradient>
  <linearGradient id="id5" gradientUnits="userSpaceOnUse" x1="303.685" y1="183.191" x2="1358.06" y2="183.191">
   <stop offset="0" style="stop-color:#F53C46"/>
   <stop offset="1" style="stop-color:#AA000A"/>
  </linearGradient>
 </defs>
 <g id="Layer_x0020_1">
  <metadata id="CorelCorpID_0Corel-Layer"/>
  <g id="_255988160">
   <g>
    <path id="_255987728" class="fil0" d="M358.558 35.3102l0 295.834 -54.8728 0 0 -295.834 54.8728 0zm274.612 283.404c-25.4953,9.67559 -54.45,14.478 -86.8654,14.478 -106.214,0 -159.322,-51.3425 -159.322,-154.096 0,-97.2461 53.1083,-145.905 159.322,-145.905 32.4154,0 61.3701,4.87323 86.8654,14.478l0 49.6465c-25.4953,-11.0161 -53.1083,-16.5248 -82.7693,-16.5248 -70.9748,0 -106.496,32.7685 -106.496,98.3055 0,71.0445 35.5217,106.498 106.496,106.498 29.661,0 57.274,-5.50866 82.7693,-16.526l0 49.6465zm67.761 -97.0335c0,45.4098 17.5843,68.0787 52.7539,68.0787 35.1697,0 52.7551,-22.6689 52.7551,-68.0787 0,-44.2795 -17.5854,-66.385 -52.7551,-66.385 -35.1697,0 -52.7539,22.1055 -52.7539,66.385zm-54.8031 0.84685c0,-72.8102 35.876,-109.251 107.557,-109.251 71.752,0 107.628,36.4406 107.628,109.251 0,72.6697 -35.876,109.041 -107.628,109.041 -71.4685,0 -107.274,-36.3709 -107.557,-109.041zm432.664 -187.218l0 47.1756 -139.831 0 0 74.4354 132.839 0 0 49.0819 -133.475 0 0 125.141 -53.8134 0 0 -295.834 194.281 0zm22.7043 295.834l-56.2854 0 125.636 -295.834 58.9689 0 128.249 295.834 -58.9689 0 -33.7571 -80.7201 -98.2346 0 18.7854 -47.5287 59.6043 0 -46.5402 -111.158 -97.4575 239.407z"/>
    <path id="_255987416" class="fil1" d="M1389.9 34.0772l87.9236 0 0 18.0969 -55.35 105.167 -25.0701 0 56.2028 -103.46 -63.7063 0 0 -19.8035zm101.724 18.0969l16.8909 0 3.47126 14.6539 22.7469 0 0 18.0957 -20.2453 0 0 41.6374c0,8.44606 3.64843,12.6827 10.9465,12.6827l9.29882 0 0 18.0969 -20.3339 0c-15.1831,0 -22.7752,-8.12126 -22.7752,-24.3933l0 -80.7732zm58.6157 105.167l0 -123.263 22.8638 0 0 44.2854c7.12087,-7.68071 16.2142,-11.5346 27.3071,-11.5346 21.4512,0 32.1626,11.152 32.1626,33.4559l0 57.0567 -22.8343 0 0 -57.0567c0,-10.0039 -4.97362,-15.0071 -14.9185,-15.0071 -7.41614,0 -14.6539,2.94331 -21.7169,8.88661l0 63.1772 -22.8638 0z"/>
    <path id="_255987512" class="fil1" d="M1398.9 253.336l-8.06102 0 0 -40.1681 8.06102 0 0 40.1681zm11.2087 -29.8488l0.357874 4.27559c0.998031,-1.52598 2.22165,-2.71181 3.67205,-3.55984 1.45039,-0.84685 3.07913,-1.27087 4.8874,-1.27087 3.01299,0 5.36693,0.979134 7.06181,2.9185 1.68543,1.94055 2.53228,4.99961 2.53228,9.19961l0 18.2858 -8.07874 0 0 -18.2575c0,-2.1378 -0.376772,-3.65315 -1.11969,-4.53898 -0.744094,-0.894094 -1.86496,-1.33701 -3.35315,-1.33701 -1.19528,0 -2.25,0.217323 -3.15354,0.668504 -0.912992,0.452362 -1.66654,1.07362 -2.25118,1.86496l0 21.6 -8.05984 0 0 -29.8488 7.50472 0zm30.672 -7.3063l0 7.3063 5.04685 0 0 5.65984 -5.04685 0 0 15.1972c0,1.15748 0.23622,1.98661 0.725197,2.48504 0.490157,0.490157 1.13031,0.744094 1.92047,0.744094 0.424016,0 0.791339,-0.0283465 1.10197,-0.0755906 0.31063,-0.0472441 0.668504,-0.121654 1.07362,-0.235039l0.668504 5.82874c-0.810236,0.272835 -1.60039,0.479528 -2.36339,0.62126 -0.762992,0.131102 -1.59094,0.206693 -2.49567,0.206693 -2.77677,0 -4.91457,-0.77126 -6.4122,-2.29724 -1.49646,-1.5248 -2.25,-3.94488 -2.25,-7.25079l0 -15.2244 -4.35945 0 0 -5.65984 4.35945 0 0 -7.3063 8.0315 0zm19.4303 37.7386c-4.44449,0 -7.92874,-1.36535 -10.4244,-4.10551 -2.50394,-2.73071 -3.75591,-6.24213 -3.75591,-10.5449l0 -1.10197c0,-4.47283 1.21417,-8.13543 3.6437,-10.9795 2.42953,-2.85236 5.7626,-4.26496 10.0087,-4.25551 4.01102,0 7.09016,1.23307 9.22795,3.69094 2.14724,2.44843 3.21969,5.75315 3.21969,9.91535l0 4.16102 -17.7957 0 -0.0850394 0.170079c0.132283,2.04331 0.753543,3.69094 1.86496,4.96181 1.11024,1.27087 2.7685,1.90276 4.95236,1.90276 1.79882,0 3.33307,-0.179528 4.59567,-0.54685 1.26142,-0.367323 2.56063,-0.93189 3.89764,-1.68543l2.18504 4.96181c-1.19646,0.980315 -2.81575,1.79882 -4.85906,2.45787 -2.04331,0.659055 -4.26496,0.998031 -6.67559,0.998031zm-0.527953 -24.7724c-1.60984,0 -2.86181,0.555118 -3.72874,1.66654 -0.875197,1.11024 -1.40315,2.58898 -1.59094,4.42441l0.0566929 0.141732 9.82087 0 0 -0.611811c0,-1.74213 -0.357874,-3.11693 -1.07362,-4.12441 -0.725197,-0.998031 -1.88386,-1.49646 -3.48425,-1.49646zm29.3161 1.26142l-2.94685 -0.0755906c-1.19528,0 -2.18386,0.244488 -2.9563,0.744094 -0.772441,0.488976 -1.35591,1.19528 -1.76102,2.09055l0 20.1685 -8.0315 0 0 -29.8488 7.47638 0 0.357874 4.41614c0.69685,-1.5626 1.60984,-2.7874 2.72126,-3.65315 1.11024,-0.875197 2.39173,-1.31811 3.84094,-1.31811 0.405118,0 0.78189,0.0377953 1.12087,0.103937 0.338976,0.0649606 0.687402,0.140551 1.03583,0.235039l-0.85748 7.1374zm8.03622 -6.92126l0.357874 4.27559c0.998031,-1.52598 2.22165,-2.71181 3.67205,-3.55984 1.45039,-0.84685 3.07913,-1.27087 4.8874,-1.27087 3.01299,0 5.36693,0.979134 7.06181,2.9185 1.68543,1.94055 2.53228,4.99961 2.53228,9.19961l0 18.2858 -8.07874 0 0 -18.2575c0,-2.1378 -0.376772,-3.65315 -1.11969,-4.53898 -0.744094,-0.894094 -1.86496,-1.33701 -3.35315,-1.33701 -1.19528,0 -2.25,0.217323 -3.15354,0.668504 -0.912992,0.452362 -1.66654,1.07362 -2.25118,1.86496l0 21.6 -8.05984 0 0 -29.8488 7.50472 0zm38.6102 29.8488c-0.291732,-0.677953 -0.54685,-1.3937 -0.753543,-2.15669 -0.216142,-0.752362 -0.367323,-1.5248 -0.461811,-2.31614 -0.827953,1.45984 -1.92047,2.66457 -3.27638,3.61654 -1.36535,0.960236 -2.98465,1.43976 -4.85906,1.43976 -3.1252,0 -5.53583,-0.809055 -7.22126,-2.42008 -1.69488,-1.60984 -2.54291,-3.80315 -2.54291,-6.5811 0,-2.9185 1.13031,-5.18858 3.38031,-6.79843 2.25118,-1.60984 5.53701,-2.41063 9.85866,-2.41063l4.52953 0 0 -2.37283c0,-1.4315 -0.376772,-2.55118 -1.13031,-3.34252 -0.753543,-0.791339 -1.88268,-1.18583 -3.37087,-1.18583 -1.29921,0 -2.30669,0.320079 -3.02244,0.960236 -0.706299,0.630709 -1.05472,1.49646 -1.05472,2.59843l-7.75866 0 -0.0566929 -0.16063c-0.121654,-2.52283 0.979134,-4.69843 3.30591,-6.52441 2.32559,-1.82717 5.35748,-2.74961 9.11457,-2.74961 3.58701,0 6.48661,0.903543 8.7,2.71181 2.22165,1.79882 3.32362,4.37835 3.32362,7.74921l0 12.326c0,1.40197 0.103937,2.71181 0.320079,3.94488 0.206693,1.23307 0.545669,2.45787 1.00748,3.67205l-8.0315 0zm-7.36299 -5.37638c1.39252,0 2.64567,-0.348425 3.74764,-1.05472 1.11024,-0.69685 1.86378,-1.50709 2.2689,-2.42008l0 -4.22717 -4.52953 0c-1.70433,0 -3.00354,0.422835 -3.86929,1.27087 -0.876378,0.84685 -1.31811,1.88268 -1.31811,3.11693 0,1.01693 0.329528,1.81654 0.979134,2.41063 0.659055,0.602362 1.5626,0.903543 2.72126,0.903543zm26.2547 -31.7787l0 7.3063 5.04685 0 0 5.65984 -5.04685 0 0 15.1972c0,1.15748 0.23622,1.98661 0.725197,2.48504 0.490157,0.490157 1.13031,0.744094 1.92047,0.744094 0.424016,0 0.791339,-0.0283465 1.10197,-0.0755906 0.31063,-0.0472441 0.668504,-0.121654 1.07362,-0.235039l0.668504 5.82874c-0.810236,0.272835 -1.60039,0.479528 -2.36339,0.62126 -0.762992,0.131102 -1.59094,0.206693 -2.49567,0.206693 -2.77677,0 -4.91457,-0.77126 -6.4122,-2.29724 -1.49646,-1.5248 -2.25,-3.94488 -2.25,-7.25079l0 -15.2244 -4.35945 0 0 -5.65984 4.35945 0 0 -7.3063 8.0315 0zm14.9669 37.1551l-8.05984 0 0 -29.8488 8.05984 0 0 29.8488zm0 -36.9957l-8.05984 0 0 -6.03543 8.05984 0 0 6.03543zm1.85906 21.7984c0,-4.45394 1.24252,-8.09764 3.72874,-10.9417 2.47559,-2.84291 5.92205,-4.26496 10.3193,-4.26496 4.40669,0 7.8626,1.42205 10.3665,4.25551 2.50512,2.8252 3.75709,6.47835 3.75709,10.9512l0 0.574016c0,4.49173 -1.25197,8.14488 -3.73819,10.9701 -2.49449,2.82402 -5.94094,4.23661 -10.3382,4.23661 -4.40669,0 -7.8626,-1.4126 -10.3583,-4.23661 -2.48504,-2.8252 -3.73701,-6.47835 -3.73701,-10.9701l0 -0.574016zm8.0315 0.574016c0,2.72126 0.479528,4.9063 1.4315,6.55394 0.960236,1.64764 2.50394,2.46732 4.63228,2.46732 2.0811,0 3.60591,-0.829134 4.56614,-2.47677 0.970866,-1.65709 1.45039,-3.84213 1.45039,-6.54449l0 -0.574016c0,-2.65512 -0.488976,-4.81181 -1.45984,-6.4878 -0.979134,-1.66654 -2.51339,-2.50394 -4.60394,-2.50394 -2.0811,0 -3.60591,0.837402 -4.56614,2.52283 -0.970866,1.67598 -1.45039,3.83268 -1.45039,6.4689l0 0.574016zm28.9488 -15.2256l0.357874 4.27559c0.998031,-1.52598 2.22165,-2.71181 3.67205,-3.55984 1.45039,-0.84685 3.07913,-1.27087 4.8874,-1.27087 3.01299,0 5.36693,0.979134 7.06181,2.9185 1.68543,1.94055 2.53228,4.99961 2.53228,9.19961l0 18.2858 -8.07874 0 0 -18.2575c0,-2.1378 -0.376772,-3.65315 -1.11969,-4.53898 -0.744094,-0.894094 -1.86496,-1.33701 -3.35315,-1.33701 -1.19528,0 -2.25,0.217323 -3.15354,0.668504 -0.912992,0.452362 -1.66654,1.07362 -2.25118,1.86496l0 21.6 -8.05984 0 0 -29.8488 7.50472 0zm38.6102 29.8488c-0.291732,-0.677953 -0.54685,-1.3937 -0.753543,-2.15669 -0.216142,-0.752362 -0.367323,-1.5248 -0.461811,-2.31614 -0.827953,1.45984 -1.92047,2.66457 -3.27638,3.61654 -1.36535,0.960236 -2.98465,1.43976 -4.85906,1.43976 -3.1252,0 -5.53583,-0.809055 -7.22126,-2.42008 -1.69488,-1.60984 -2.54291,-3.80315 -2.54291,-6.5811 0,-2.9185 1.13031,-5.18858 3.38031,-6.79843 2.25118,-1.60984 5.53701,-2.41063 9.85866,-2.41063l4.52953 0 0 -2.37283c0,-1.4315 -0.376772,-2.55118 -1.13031,-3.34252 -0.753543,-0.791339 -1.88268,-1.18583 -3.37087,-1.18583 -1.29921,0 -2.30669,0.320079 -3.02244,0.960236 -0.706299,0.630709 -1.05472,1.49646 -1.05472,2.59843l-7.75866 0 -0.0566929 -0.16063c-0.121654,-2.52283 0.979134,-4.69843 3.30591,-6.52441 2.32559,-1.82717 5.35748,-2.74961 9.11457,-2.74961 3.58701,0 6.48661,0.903543 8.7,2.71181 2.22165,1.79882 3.32362,4.37835 3.32362,7.74921l0 12.326c0,1.40197 0.103937,2.71181 0.320079,3.94488 0.206693,1.23307 0.545669,2.45787 1.00748,3.67205l-8.0315 0zm-7.36299 -5.37638c1.39252,0 2.64567,-0.348425 3.74764,-1.05472 1.11024,-0.69685 1.86378,-1.50709 2.2689,-2.42008l0 -4.22717 -4.52953 0c-1.70433,0 -3.00354,0.422835 -3.86929,1.27087 -0.876378,0.84685 -1.31811,1.88268 -1.31811,3.11693 0,1.01693 0.329528,1.81654 0.979134,2.41063 0.659055,0.602362 1.5626,0.903543 2.72126,0.903543zm25.0689 5.37638l-8.05984 0 0 -43.0311 8.05984 0 0 43.0311zm51.4193 -13.2957l0.0566929 0.16063c0.0661417,4.29331 -1.23307,7.64528 -3.91772,10.0748 -2.69291,2.42953 -6.39331,3.6437 -11.1201,3.6437 -4.82008,0 -8.70945,-1.55315 -11.6657,-4.65118 -2.96575,-3.09803 -4.44449,-7.10906 -4.44449,-12.0142l0 -7.97598c0,-4.88622 1.44094,-8.89843 4.3311,-12.0142 2.89134,-3.11693 6.67559,-4.67126 11.3657,-4.67126 4.89567,0 8.7189,1.19646 11.478,3.58819 2.75787,2.39173 4.09488,5.75315 4.02992,10.0937l-0.0566929 0.168898 -7.83425 0c0,-2.57953 -0.62126,-4.5 -1.86378,-5.75315 -1.2437,-1.26142 -3.16417,-1.89213 -5.75315,-1.89213 -2.41063,0 -4.29449,0.969685 -5.64094,2.90906 -1.35591,1.94055 -2.02441,4.44449 -2.02441,7.51417l0 8.03268c0,3.0874 0.706299,5.61142 2.1378,7.56024 1.42205,1.94882 3.39921,2.91969 5.94094,2.91969 2.41063,0 4.20945,-0.63189 5.39528,-1.88386 1.18701,-1.26142 1.77992,-3.20079 1.77992,-5.80984l7.80591 0zm0.447638 -1.90157c0,-4.45394 1.24252,-8.09764 3.72874,-10.9417 2.47559,-2.84291 5.92205,-4.26496 10.3193,-4.26496 4.40669,0 7.8626,1.42205 10.3665,4.25551 2.50512,2.8252 3.75709,6.47835 3.75709,10.9512l0 0.574016c0,4.49173 -1.25197,8.14488 -3.73819,10.9701 -2.49449,2.82402 -5.94094,4.23661 -10.3382,4.23661 -4.40669,0 -7.8626,-1.4126 -10.3583,-4.23661 -2.48504,-2.8252 -3.73701,-6.47835 -3.73701,-10.9701l0 -0.574016zm8.0315 0.574016c0,2.72126 0.479528,4.9063 1.4315,6.55394 0.960236,1.64764 2.50394,2.46732 4.63228,2.46732 2.0811,0 3.60591,-0.829134 4.56614,-2.47677 0.970866,-1.65709 1.45039,-3.84213 1.45039,-6.54449l0 -0.574016c0,-2.65512 -0.488976,-4.81181 -1.45984,-6.4878 -0.979134,-1.66654 -2.51339,-2.50394 -4.60394,-2.50394 -2.0811,0 -3.60591,0.837402 -4.56614,2.52283 -0.970866,1.67598 -1.45039,3.83268 -1.45039,6.4689l0 0.574016zm28.9488 -15.2256l0.357874 4.27559c0.998031,-1.52598 2.22165,-2.71181 3.67205,-3.55984 1.45039,-0.84685 3.07913,-1.27087 4.8874,-1.27087 3.01299,0 5.36693,0.979134 7.06181,2.9185 1.68543,1.94055 2.53228,4.99961 2.53228,9.19961l0 18.2858 -8.07874 0 0 -18.2575c0,-2.1378 -0.376772,-3.65315 -1.11969,-4.53898 -0.744094,-0.894094 -1.86496,-1.33701 -3.35315,-1.33701 -1.19528,0 -2.25,0.217323 -3.15354,0.668504 -0.912992,0.452362 -1.66654,1.07362 -2.25118,1.86496l0 21.6 -8.05984 0 0 -29.8488 7.50472 0zm23.1118 29.8488l0 -24.189 -4.44449 0 0 -5.65984 4.44449 0 0 -3.30472c0,-3.35197 0.960236,-5.9315 2.89016,-7.73976 1.92992,-1.81772 4.65118,-2.72126 8.14488,-2.72126 0.677953,0 1.3748,0.0566929 2.0811,0.15 0.706299,0.103937 1.48701,0.245669 2.32559,0.433465l-0.687402 5.97992c-0.442913,-0.0661417 -0.865748,-0.132283 -1.28031,-0.188976 -0.414567,-0.0566929 -0.895276,-0.0850394 -1.45039,-0.0850394 -1.30866,0 -2.29724,0.357874 -2.96575,1.07362 -0.668504,0.725197 -1.00748,1.75157 -1.00748,3.09803l0 3.30472 5.7437 0 0 5.65984 -5.7437 0 0 24.189 -8.05039 0zm26.3598 0.583465c-4.44449,0 -7.92874,-1.36535 -10.4244,-4.10551 -2.50394,-2.73071 -3.75591,-6.24213 -3.75591,-10.5449l0 -1.10197c0,-4.47283 1.21417,-8.13543 3.6437,-10.9795 2.42953,-2.85236 5.7626,-4.26496 10.0087,-4.25551 4.01102,0 7.09016,1.23307 9.22795,3.69094 2.14724,2.44843 3.21969,5.75315 3.21969,9.91535l0 4.16102 -17.7957 0 -0.0850394 0.170079c0.132283,2.04331 0.753543,3.69094 1.86496,4.96181 1.11024,1.27087 2.7685,1.90276 4.95236,1.90276 1.79882,0 3.33307,-0.179528 4.59567,-0.54685 1.26142,-0.367323 2.56063,-0.93189 3.89764,-1.68543l2.18504 4.96181c-1.19646,0.980315 -2.81575,1.79882 -4.85906,2.45787 -2.04331,0.659055 -4.26496,0.998031 -6.67559,0.998031zm-0.527953 -24.7724c-1.60984,0 -2.86181,0.555118 -3.72874,1.66654 -0.875197,1.11024 -1.40315,2.58898 -1.59094,4.42441l0.0566929 0.141732 9.82087 0 0 -0.611811c0,-1.74213 -0.357874,-3.11693 -1.07362,-4.12441 -0.725197,-0.998031 -1.88386,-1.49646 -3.48425,-1.49646zm29.3161 1.26142l-2.94685 -0.0755906c-1.19528,0 -2.18386,0.244488 -2.9563,0.744094 -0.772441,0.488976 -1.35591,1.19528 -1.76102,2.09055l0 20.1685 -8.0315 0 0 -29.8488 7.47638 0 0.357874 4.41614c0.69685,-1.5626 1.60984,-2.7874 2.72126,-3.65315 1.11024,-0.875197 2.39173,-1.31811 3.84094,-1.31811 0.405118,0 0.78189,0.0377953 1.12087,0.103937 0.338976,0.0649606 0.687402,0.140551 1.03583,0.235039l-0.85748 7.1374zm13.0843 23.511c-4.44449,0 -7.92874,-1.36535 -10.4244,-4.10551 -2.50394,-2.73071 -3.75591,-6.24213 -3.75591,-10.5449l0 -1.10197c0,-4.47283 1.21417,-8.13543 3.6437,-10.9795 2.42953,-2.85236 5.7626,-4.26496 10.0087,-4.25551 4.01102,0 7.09016,1.23307 9.22795,3.69094 2.14724,2.44843 3.21969,5.75315 3.21969,9.91535l0 4.16102 -17.7957 0 -0.0850394 0.170079c0.132283,2.04331 0.753543,3.69094 1.86496,4.96181 1.11024,1.27087 2.7685,1.90276 4.95236,1.90276 1.79882,0 3.33307,-0.179528 4.59567,-0.54685 1.26142,-0.367323 2.56063,-0.93189 3.89764,-1.68543l2.18504 4.96181c-1.19646,0.980315 -2.81575,1.79882 -4.85906,2.45787 -2.04331,0.659055 -4.26496,0.998031 -6.67559,0.998031zm-0.527953 -24.7724c-1.60984,0 -2.86181,0.555118 -3.72874,1.66654 -0.875197,1.11024 -1.40315,2.58898 -1.59094,4.42441l0.0566929 0.141732 9.82087 0 0 -0.611811c0,-1.74213 -0.357874,-3.11693 -1.07362,-4.12441 -0.725197,-0.998031 -1.88386,-1.49646 -3.48425,-1.49646zm20.9835 -5.65984l0.357874 4.27559c0.998031,-1.52598 2.22165,-2.71181 3.67205,-3.55984 1.45039,-0.84685 3.07913,-1.27087 4.8874,-1.27087 3.01299,0 5.36693,0.979134 7.06181,2.9185 1.68543,1.94055 2.53228,4.99961 2.53228,9.19961l0 18.2858 -8.07874 0 0 -18.2575c0,-2.1378 -0.376772,-3.65315 -1.11969,-4.53898 -0.744094,-0.894094 -1.86496,-1.33701 -3.35315,-1.33701 -1.19528,0 -2.25,0.217323 -3.15354,0.668504 -0.912992,0.452362 -1.66654,1.07362 -2.25118,1.86496l0 21.6 -8.05984 0 0 -29.8488 7.50472 0zm33.4783 24.2469c1.40315,0 2.51457,-0.414567 3.34252,-1.25315 0.829134,-0.837402 1.24252,-1.95827 1.24252,-3.35197l7.33583 0 0.0566929 0.170079c0.0744094,3.01299 -1.04528,5.53583 -3.37087,7.56969 -2.31732,2.03386 -5.17913,3.05079 -8.60669,3.05079 -4.40669,0 -7.8248,-1.4126 -10.2354,-4.23661 -2.40118,-2.8252 -3.60591,-6.4311 -3.60591,-10.8283l0 -0.829134c0,-4.37835 1.19528,-7.98425 3.59646,-10.8283 2.40118,-2.84291 5.80039,-4.26496 10.1882,-4.26496 3.6437,0 6.58228,1.05472 8.80394,3.14528 2.22283,2.09882 3.30472,4.85787 3.23031,8.27598l-0.0566929 0.170079 -7.33583 0c0,-1.54488 -0.413386,-2.8252 -1.23307,-3.85157 -0.818504,-1.01693 -1.94882,-1.5248 -3.40866,-1.5248 -2.07165,0 -3.54921,0.827953 -4.42559,2.49449 -0.875197,1.66654 -1.30866,3.79488 -1.30866,6.38386l0 0.829134c0,2.64567 0.433465,4.79291 1.30866,6.4311 0.876378,1.62874 2.37283,2.44843 4.48228,2.44843zm26.087 6.18543c-4.44449,0 -7.92874,-1.36535 -10.4244,-4.10551 -2.50394,-2.73071 -3.75591,-6.24213 -3.75591,-10.5449l0 -1.10197c0,-4.47283 1.21417,-8.13543 3.6437,-10.9795 2.42953,-2.85236 5.7626,-4.26496 10.0087,-4.25551 4.01102,0 7.09016,1.23307 9.22795,3.69094 2.14724,2.44843 3.21969,5.75315 3.21969,9.91535l0 4.16102 -17.7957 0 -0.0850394 0.170079c0.132283,2.04331 0.753543,3.69094 1.86496,4.96181 1.11024,1.27087 2.7685,1.90276 4.95236,1.90276 1.79882,0 3.33307,-0.179528 4.59567,-0.54685 1.26142,-0.367323 2.56063,-0.93189 3.89764,-1.68543l2.18504 4.96181c-1.19646,0.980315 -2.81575,1.79882 -4.85906,2.45787 -2.04331,0.659055 -4.26496,0.998031 -6.67559,0.998031zm-0.527953 -24.7724c-1.60984,0 -2.86181,0.555118 -3.72874,1.66654 -0.875197,1.11024 -1.40315,2.58898 -1.59094,4.42441l0.0566929 0.141732 9.82087 0 0 -0.611811c0,-1.74213 -0.357874,-3.11693 -1.07362,-4.12441 -0.725197,-0.998031 -1.88386,-1.49646 -3.48425,-1.49646zm29.9622 8.99173c0,-4.45394 1.24252,-8.09764 3.72874,-10.9417 2.47559,-2.84291 5.92205,-4.26496 10.3193,-4.26496 4.40669,0 7.8626,1.42205 10.3665,4.25551 2.50512,2.8252 3.75709,6.47835 3.75709,10.9512l0 0.574016c0,4.49173 -1.25197,8.14488 -3.73819,10.9701 -2.49449,2.82402 -5.94094,4.23661 -10.3382,4.23661 -4.40669,0 -7.8626,-1.4126 -10.3583,-4.23661 -2.48504,-2.8252 -3.73701,-6.47835 -3.73701,-10.9701l0 -0.574016zm8.0315 0.574016c0,2.72126 0.479528,4.9063 1.4315,6.55394 0.960236,1.64764 2.50394,2.46732 4.63228,2.46732 2.0811,0 3.60591,-0.829134 4.56614,-2.47677 0.970866,-1.65709 1.45039,-3.84213 1.45039,-6.54449l0 -0.574016c0,-2.65512 -0.488976,-4.81181 -1.45984,-6.4878 -0.979134,-1.66654 -2.51339,-2.50394 -4.60394,-2.50394 -2.0811,0 -3.60591,0.837402 -4.56614,2.52283 -0.970866,1.67598 -1.45039,3.83268 -1.45039,6.4689l0 0.574016zm28.9488 -15.2256l0.357874 4.27559c0.998031,-1.52598 2.22165,-2.71181 3.67205,-3.55984 1.45039,-0.84685 3.07913,-1.27087 4.8874,-1.27087 3.01299,0 5.36693,0.979134 7.06181,2.9185 1.68543,1.94055 2.53228,4.99961 2.53228,9.19961l0 18.2858 -8.07874 0 0 -18.2575c0,-2.1378 -0.376772,-3.65315 -1.11969,-4.53898 -0.744094,-0.894094 -1.86496,-1.33701 -3.35315,-1.33701 -1.19528,0 -2.25,0.217323 -3.15354,0.668504 -0.912992,0.452362 -1.66654,1.07362 -2.25118,1.86496l0 21.6 -8.05984 0 0 -29.8488 7.50472 0zm-577.519 80.9669l-15.424 0 0 16.6854 -8.05039 0 0 -40.1681 26.289 0 0 6.21378 -18.2386 0 0 11.0551 15.424 0 0 6.21378zm1.99134 1.48819c0,-4.45394 1.24252,-8.09764 3.72874,-10.9417 2.47559,-2.84291 5.92205,-4.26496 10.3193,-4.26496 4.40669,0 7.8626,1.42205 10.3665,4.25551 2.50512,2.8252 3.75709,6.47835 3.75709,10.9512l0 0.574016c0,4.49173 -1.25197,8.14488 -3.73819,10.9701 -2.49449,2.82402 -5.94094,4.23661 -10.3382,4.23661 -4.40669,0 -7.8626,-1.4126 -10.3583,-4.23661 -2.48504,-2.8252 -3.73701,-6.47835 -3.73701,-10.9701l0 -0.574016zm8.0315 0.574016c0,2.72126 0.479528,4.9063 1.4315,6.55394 0.960236,1.64764 2.50394,2.46732 4.63228,2.46732 2.0811,0 3.60591,-0.829134 4.56614,-2.47677 0.970866,-1.65709 1.45039,-3.84213 1.45039,-6.54449l0 -0.574016c0,-2.65512 -0.488976,-4.81181 -1.45984,-6.4878 -0.979134,-1.66654 -2.51339,-2.50394 -4.60394,-2.50394 -2.0811,0 -3.60591,0.837402 -4.56614,2.52283 -0.970866,1.67598 -1.45039,3.83268 -1.45039,6.4689l0 0.574016zm20.3433 -0.574016c0,-4.45394 1.24252,-8.09764 3.72874,-10.9417 2.47559,-2.84291 5.92205,-4.26496 10.3193,-4.26496 4.40669,0 7.8626,1.42205 10.3665,4.25551 2.50512,2.8252 3.75709,6.47835 3.75709,10.9512l0 0.574016c0,4.49173 -1.25197,8.14488 -3.73819,10.9701 -2.49449,2.82402 -5.94094,4.23661 -10.3382,4.23661 -4.40669,0 -7.8626,-1.4126 -10.3583,-4.23661 -2.48504,-2.8252 -3.73701,-6.47835 -3.73701,-10.9701l0 -0.574016zm8.0315 0.574016c0,2.72126 0.479528,4.9063 1.4315,6.55394 0.960236,1.64764 2.50394,2.46732 4.63228,2.46732 2.0811,0 3.60591,-0.829134 4.56614,-2.47677 0.970866,-1.65709 1.45039,-3.84213 1.45039,-6.54449l0 -0.574016c0,-2.65512 -0.488976,-4.81181 -1.45984,-6.4878 -0.979134,-1.66654 -2.51339,-2.50394 -4.60394,-2.50394 -2.0811,0 -3.60591,0.837402 -4.56614,2.52283 -0.970866,1.67598 -1.45039,3.83268 -1.45039,6.4689l0 0.574016zm20.3433 -0.0566929c0,-4.70787 1.01693,-8.50157 3.05079,-11.3929 2.03386,-2.88071 4.89567,-4.3311 8.59606,-4.3311 1.48819,0 2.8252,0.329528 4.02047,0.969685 1.19646,0.640157 2.25118,1.5626 3.14528,2.75906l0 -16.3559 8.08819 0 0 43.0311 -6.87402 0 -0.687402 -3.67205c-0.941339,1.38425 -2.05276,2.43898 -3.33307,3.16417 -1.28976,0.724016 -2.75906,1.09134 -4.41614,1.09134 -3.6626,0 -6.50551,-1.34646 -8.53937,-4.02992 -2.03386,-2.68346 -3.05079,-6.23268 -3.05079,-10.6488l0 -0.584646zm8.0315 0.584646c0,2.60787 0.441732,4.67008 1.31811,6.16654 0.884646,1.49764 2.32559,2.24173 4.30276,2.24173 1.16811,0 2.17559,-0.226772 3.04134,-0.69685 0.866929,-0.47126 1.57323,-1.15866 2.1189,-2.05276l0 -12.7205c-0.545669,-0.94252 -1.25197,-1.66772 -2.10945,-2.19449 -0.856299,-0.526772 -1.85433,-0.78189 -2.99409,-0.78189 -1.96772,0 -3.39921,0.866929 -4.3122,2.6185 -0.914173,1.74094 -1.36535,4.02992 -1.36535,6.83504l0 0.584646zm56.7685 14.0953c-0.291732,-0.677953 -0.54685,-1.3937 -0.753543,-2.15669 -0.216142,-0.752362 -0.367323,-1.5248 -0.461811,-2.31614 -0.827953,1.45984 -1.92047,2.66457 -3.27638,3.61654 -1.36535,0.960236 -2.98465,1.43976 -4.85906,1.43976 -3.1252,0 -5.53583,-0.809055 -7.22126,-2.42008 -1.69488,-1.60984 -2.54291,-3.80315 -2.54291,-6.5811 0,-2.9185 1.13031,-5.18858 3.38031,-6.79843 2.25118,-1.60984 5.53701,-2.41063 9.85866,-2.41063l4.52953 0 0 -2.37283c0,-1.4315 -0.376772,-2.55118 -1.13031,-3.34252 -0.753543,-0.791339 -1.88268,-1.18583 -3.37087,-1.18583 -1.29921,0 -2.30669,0.320079 -3.02244,0.960236 -0.706299,0.630709 -1.05472,1.49646 -1.05472,2.59843l-7.75866 0 -0.0566929 -0.16063c-0.121654,-2.52283 0.979134,-4.69843 3.30591,-6.52441 2.32559,-1.82717 5.35748,-2.74961 9.11457,-2.74961 3.58701,0 6.48661,0.903543 8.7,2.71181 2.22165,1.79882 3.32362,4.37835 3.32362,7.74921l0 12.326c0,1.40197 0.103937,2.71181 0.320079,3.94488 0.206693,1.23307 0.545669,2.45787 1.00748,3.67205l-8.0315 0zm-7.36299 -5.37638c1.39252,0 2.64567,-0.348425 3.74764,-1.05472 1.11024,-0.69685 1.86378,-1.50709 2.2689,-2.42008l0 -4.22717 -4.52953 0c-1.70433,0 -3.00354,0.422835 -3.86929,1.27087 -0.876378,0.84685 -1.31811,1.88268 -1.31811,3.11693 0,1.01693 0.329528,1.81654 0.979134,2.41063 0.659055,0.602362 1.5626,0.903543 2.72126,0.903543zm23.9575 -24.4724l0.357874 4.27559c0.998031,-1.52598 2.22165,-2.71181 3.67205,-3.55984 1.45039,-0.84685 3.07913,-1.27087 4.8874,-1.27087 3.01299,0 5.36693,0.979134 7.06181,2.9185 1.68543,1.94055 2.53228,4.99961 2.53228,9.19961l0 18.2858 -8.07874 0 0 -18.2575c0,-2.1378 -0.376772,-3.65315 -1.11969,-4.53898 -0.744094,-0.894094 -1.86496,-1.33701 -3.35315,-1.33701 -1.19528,0 -2.25,0.217323 -3.15354,0.668504 -0.912992,0.452362 -1.66654,1.07362 -2.25118,1.86496l0 21.6 -8.05984 0 0 -29.8488 7.50472 0zm19.7693 15.1689c0,-4.70787 1.01693,-8.50157 3.05079,-11.3929 2.03386,-2.88071 4.89567,-4.3311 8.59606,-4.3311 1.48819,0 2.8252,0.329528 4.02047,0.969685 1.19646,0.640157 2.25118,1.5626 3.14528,2.75906l0 -16.3559 8.08819 0 0 43.0311 -6.87402 0 -0.687402 -3.67205c-0.941339,1.38425 -2.05276,2.43898 -3.33307,3.16417 -1.28976,0.724016 -2.75906,1.09134 -4.41614,1.09134 -3.6626,0 -6.50551,-1.34646 -8.53937,-4.02992 -2.03386,-2.68346 -3.05079,-6.23268 -3.05079,-10.6488l0 -0.584646zm8.0315 0.584646c0,2.60787 0.441732,4.67008 1.31811,6.16654 0.884646,1.49764 2.32559,2.24173 4.30276,2.24173 1.16811,0 2.17559,-0.226772 3.04134,-0.69685 0.866929,-0.47126 1.57323,-1.15866 2.1189,-2.05276l0 -12.7205c-0.545669,-0.94252 -1.25197,-1.66772 -2.10945,-2.19449 -0.856299,-0.526772 -1.85433,-0.78189 -2.99409,-0.78189 -1.96772,0 -3.39921,0.866929 -4.3122,2.6185 -0.914173,1.74094 -1.36535,4.02992 -1.36535,6.83504l0 0.584646zm60.7134 5.43307l-13.0217 0 -2.70236 8.6622 -8.40827 0 13.5402 -40.1681 8.24764 0 13.4929 40.1681 -8.41772 0 -2.73071 -8.6622zm-11.035 -6.3189l9.07677 0 -4.43504 -14.152 -0.168898 0 -4.47283 14.152zm20.7283 0.301181c0,-4.70787 1.02638,-8.50157 3.06024,-11.3929 2.04331,-2.88071 4.91575,-4.3311 8.60669,-4.3311 1.67598,0 3.14528,0.38622 4.41614,1.13976 1.27087,0.752362 2.35394,1.82598 3.25748,3.21969l0.630709 -3.80433 6.93071 0 0 29.7071c0,3.87992 -1.27087,6.88346 -3.81378,9.01181 -2.53228,2.1189 -6.07323,3.18189 -10.6205,3.18189 -1.50709,0 -3.10748,-0.206693 -4.79291,-0.62126 -1.69488,-0.414567 -3.25866,-0.979134 -4.68898,-1.69488l1.34646 -6.00709c1.23307,0.583465 2.50394,1.02638 3.82205,1.33701 1.31811,0.301181 2.73071,0.452362 4.26614,0.452362 2.20276,0 3.82205,-0.461811 4.86732,-1.38425 1.03583,-0.914173 1.55433,-2.35394 1.55433,-4.30276l0 -2.70354c-0.885827,1.12087 -1.92165,1.97835 -3.11693,2.57126 -1.19646,0.583465 -2.56181,0.884646 -4.10551,0.884646 -3.6626,0 -6.51614,-1.34646 -8.55945,-4.02992 -2.03386,-2.68346 -3.06024,-6.23268 -3.06024,-10.6488l0 -0.584646zm8.06102 0.584646c0,2.60787 0.432283,4.67008 1.30866,6.16654 0.875197,1.49764 2.29724,2.24173 4.28386,2.24173 1.23307,0 2.27835,-0.217323 3.13583,-0.668504 0.856299,-0.452362 1.53425,-1.11142 2.05276,-1.97717l0 -12.9378c-0.518504,-0.912992 -1.19646,-1.62874 -2.05276,-2.1189 -0.85748,-0.498425 -1.88386,-0.744094 -3.07913,-0.744094 -1.96772,0 -3.39921,0.866929 -4.30276,2.6185 -0.904724,1.74094 -1.34646,4.02992 -1.34646,6.83504l0 0.584646zm37.1965 -8.83228l-2.94685 -0.0755906c-1.19528,0 -2.18386,0.244488 -2.9563,0.744094 -0.772441,0.488976 -1.35591,1.19528 -1.76102,2.09055l0 20.1685 -8.0315 0 0 -29.8488 7.47638 0 0.357874 4.41614c0.69685,-1.5626 1.60984,-2.7874 2.72126,-3.65315 1.11024,-0.875197 2.39173,-1.31811 3.84094,-1.31811 0.405118,0 0.78189,0.0377953 1.12087,0.103937 0.338976,0.0649606 0.687402,0.140551 1.03583,0.235039l-0.85748 7.1374zm9.14764 22.9276l-8.05984 0 0 -29.8488 8.05984 0 0 29.8488zm0 -36.9957l-8.05984 0 0 -6.03543 8.05984 0 0 6.03543zm15.5681 31.3937c1.40315,0 2.51457,-0.414567 3.34252,-1.25315 0.829134,-0.837402 1.24252,-1.95827 1.24252,-3.35197l7.33583 0 0.0566929 0.170079c0.0744094,3.01299 -1.04528,5.53583 -3.37087,7.56969 -2.31732,2.03386 -5.17913,3.05079 -8.60669,3.05079 -4.40669,0 -7.8248,-1.4126 -10.2354,-4.23661 -2.40118,-2.8252 -3.60591,-6.4311 -3.60591,-10.8283l0 -0.829134c0,-4.37835 1.19528,-7.98425 3.59646,-10.8283 2.40118,-2.84291 5.80039,-4.26496 10.1882,-4.26496 3.6437,0 6.58228,1.05472 8.80394,3.14528 2.22283,2.09882 3.30472,4.85787 3.23031,8.27598l-0.0566929 0.170079 -7.33583 0c0,-1.54488 -0.413386,-2.8252 -1.23307,-3.85157 -0.818504,-1.01693 -1.94882,-1.5248 -3.40866,-1.5248 -2.07165,0 -3.54921,0.827953 -4.42559,2.49449 -0.875197,1.66654 -1.30866,3.79488 -1.30866,6.38386l0 0.829134c0,2.64567 0.433465,4.79291 1.30866,6.4311 0.876378,1.62874 2.37283,2.44843 4.48228,2.44843zm31.4445 1.18583c-0.922441,1.60039 -2.09055,2.83465 -3.5126,3.70039 -1.4126,0.866929 -3.06024,1.29921 -4.93346,1.29921 -3.14528,0 -5.60315,-1.07362 -7.38189,-3.20079 -1.77047,-2.1378 -2.6563,-5.44252 -2.6563,-9.93425l0 -17.2972 8.02323 0 0 17.3539c0,2.60787 0.357874,4.39724 1.06417,5.36693 0.705118,0.960236 1.80709,1.44094 3.29528,1.44094 1.28976,0 2.39173,-0.198425 3.31417,-0.611811 0.912992,-0.414567 1.66654,-1.02638 2.25945,-1.83661l0 -21.7134 8.05157 0 0 29.8488 -6.67677 0 -0.84685 -4.41614zm18.5539 4.41614l-8.05984 0 0 -43.0311 8.05984 0 0 43.0311zm12.7618 -37.1551l0 7.3063 5.04685 0 0 5.65984 -5.04685 0 0 15.1972c0,1.15748 0.23622,1.98661 0.725197,2.48504 0.490157,0.490157 1.13031,0.744094 1.92047,0.744094 0.424016,0 0.791339,-0.0283465 1.10197,-0.0755906 0.31063,-0.0472441 0.668504,-0.121654 1.07362,-0.235039l0.668504 5.82874c-0.810236,0.272835 -1.60039,0.479528 -2.36339,0.62126 -0.762992,0.131102 -1.59094,0.206693 -2.49567,0.206693 -2.77677,0 -4.91457,-0.77126 -6.4122,-2.29724 -1.49646,-1.5248 -2.25,-3.94488 -2.25,-7.25079l0 -15.2244 -4.35945 0 0 -5.65984 4.35945 0 0 -7.3063 8.0315 0zm24.7878 32.739c-0.922441,1.60039 -2.09055,2.83465 -3.5126,3.70039 -1.4126,0.866929 -3.06024,1.29921 -4.93346,1.29921 -3.14528,0 -5.60315,-1.07362 -7.38189,-3.20079 -1.77047,-2.1378 -2.6563,-5.44252 -2.6563,-9.93425l0 -17.2972 8.02323 0 0 17.3539c0,2.60787 0.357874,4.39724 1.06417,5.36693 0.705118,0.960236 1.80709,1.44094 3.29528,1.44094 1.28976,0 2.39173,-0.198425 3.31417,-0.611811 0.912992,-0.414567 1.66654,-1.02638 2.25945,-1.83661l0 -21.7134 8.05157 0 0 29.8488 -6.67677 0 -0.84685 -4.41614zm25.7752 -18.5114l-2.94685 -0.0755906c-1.19528,0 -2.18386,0.244488 -2.9563,0.744094 -0.772441,0.488976 -1.35591,1.19528 -1.76102,2.09055l0 20.1685 -8.0315 0 0 -29.8488 7.47638 0 0.357874 4.41614c0.69685,-1.5626 1.60984,-2.7874 2.72126,-3.65315 1.11024,-0.875197 2.39173,-1.31811 3.84094,-1.31811 0.405118,0 0.78189,0.0377953 1.12087,0.103937 0.338976,0.0649606 0.687402,0.140551 1.03583,0.235039l-0.85748 7.1374zm13.0843 23.511c-4.44449,0 -7.92874,-1.36535 -10.4244,-4.10551 -2.50394,-2.73071 -3.75591,-6.24213 -3.75591,-10.5449l0 -1.10197c0,-4.47283 1.21417,-8.13543 3.6437,-10.9795 2.42953,-2.85236 5.7626,-4.26496 10.0087,-4.25551 4.01102,0 7.09016,1.23307 9.22795,3.69094 2.14724,2.44843 3.21969,5.75315 3.21969,9.91535l0 4.16102 -17.7957 0 -0.0850394 0.170079c0.132283,2.04331 0.753543,3.69094 1.86496,4.96181 1.11024,1.27087 2.7685,1.90276 4.95236,1.90276 1.79882,0 3.33307,-0.179528 4.59567,-0.54685 1.26142,-0.367323 2.56063,-0.93189 3.89764,-1.68543l2.18504 4.96181c-1.19646,0.980315 -2.81575,1.79882 -4.85906,2.45787 -2.04331,0.659055 -4.26496,0.998031 -6.67559,0.998031zm-0.527953 -24.7724c-1.60984,0 -2.86181,0.555118 -3.72874,1.66654 -0.875197,1.11024 -1.40315,2.58898 -1.59094,4.42441l0.0566929 0.141732 9.82087 0 0 -0.611811c0,-1.74213 -0.357874,-3.11693 -1.07362,-4.12441 -0.725197,-0.998031 -1.88386,-1.49646 -3.48425,-1.49646z"/>
   </g>
   <g>
    <g>
     <path id="_255987080" class="fil2" d="M178.429 303.495c-11.2039,-1.81063 -22.4209,-3.67913 -31.5413,-5.32913l14.9858 -19.311 0.114567 0.00708661 13.402 -15.8528c2.66811,-3.34252 4.95591,-4.48465 7.31811,-7.64528l26.0705 -35.1661c3.63661,-5.15669 5.46969,-10.2827 11.5594,-18.4843 5.77323,-7.7752 11.3043,-23.3575 15.2634,-32.5016 6.28937,-14.5287 9.25039,-37.7693 10.9571,-54.3343 -2.80512,1.2378 -2.99646,1.12323 -5.40472,3.14055 -4.35472,3.64606 -8.59488,11.4307 -13.1327,17.4437l-2.66575 -7.42795c-3.86811,1.70787 -8.28071,7.86614 -10.5579,12.678 -1.13031,2.39173 -2.67047,6.01181 -2.88189,8.54646 -0.277559,3.29646 0.772441,6.67087 -0.943701,10.0323l0.788976 5.36811c-4.74331,-3.04606 -3.35079,-1.65827 -4.8815,-4.42323l-0.856299 -1.47638c-1.47992,-1.28976 -2.28425,-4.7315 -2.79331,-6.77835 -3.84213,-15.4547 0.373228,-37.1327 16.4705,-47.7094 4.79409,-3.14882 4.91575,-1.7185 6.72874,-4.86969 -4.31693,-0.395669 -4.37835,1.0878 -10.4705,4.35354l-11.0185 4.77874 -1.24724 -4.19646c-10.3122,9.87992 -6.09331,-5.17441 -21.0307,29.0894 -9.54803,-2.51457 -5.44488,-22.7091 -4.63228,-24.7098l13.5839 -20.4224c-2.76732,0.15 -10.389,3.71811 -14.8535,5.33031 4.09252,-20.524 40.8709,-23.2323 48.9898,-19.963l18.5374 9.01181c-6.15118,-13.9394 -29.4827,-16.0854 -41.6764,-17.2878 2.52756,-9.59409 28.7657,-12.7039 28.9417,-12.7866 -2.89606,-2.53465 -5.58425,-1.95945 -9.76417,-2.54409 2.38228,-3.00354 2.74843,-4.41732 7.06417,-5.12362 3.74646,-0.614173 6.38504,0.770079 9.71693,2.52874 3.14882,0.0425197 5.55236,2.01378 8.09173,3.97677 5.39764,4.17283 10.1362,15.7134 13.1587,22.0488 2.67638,-6.26811 5.24528,-10.8295 10.2059,-14.3858l5.26417 -3.34016c10.8626,-6.09685 19.8402,-4.11024 29.5299,1.42559 8.37992,4.78701 7.15984,4.75984 11.1886,13.2874 -14.8181,-2.6126 -15.7228,-6.07677 -30.7299,-0.45l9.29764 3.62835 -0.509055 2.89134c-8.58898,0.467717 -10.187,2.11535 -16.9524,5.9563 6.50787,0.596457 19.937,-9.50787 38.8063,5.77795 5.20984,4.2189 7.42205,6.75354 11.2299,13.2591 1.61102,2.75315 2.45669,5.3622 3.43465,8.58189 1.28386,4.22717 1.73268,4.96654 0.738189,8.77441 -1.70433,0.462992 -3.77244,-2.13189 -7.99488,-5.38583 0.152362,2.80984 1.04173,5.53346 1.54843,8.20866 0.564567,2.97756 0.713386,5.81575 0.734646,9.6248l-2.22638 16.0713c-0.220866,0.993307 -0.314173,1.5378 -0.705118,2.47323 -1.08661,2.59016 0.0933071,0.69685 -1.08898,1.65236l-2.39882 3.74882 -1.84843 -2.2063 -0.542126 -2.07165c-0.0425197,-0.19252 -0.103937,-0.510236 -0.15,-0.725197 -0.26811,-1.26614 -0.314173,-1.95236 -0.786614,-3.66614l-7.16339 -17.7992 -1.01929 5.78386c-2.93976,-0.780709 -1.82362,-0.31063 -3.68622,-1.64528 0.322441,3.71102 6.21614,12.998 6.5563,14.8429l-0.598819 19.0063c-3.50669,-1.63228 -3.5374,-4.78701 -8.73307,-12.4724 -2.69055,15.2622 -7.22953,21.6969 -14.5205,32.3528 -2.14488,3.1311 -4.28268,6.27874 -7.38425,7.32756 -1.93346,1.1563 -4.87795,3.49134 -6.62244,4.98307l-4.40669 1.20945c1.93937,-10.9972 6.6378,-7.91457 8.33031,-30.3343l-8.22165 1.53189 3.11575 -23.3031c-4.27559,1.88622 0.219685,1.00748 -7.59803,3.63071 -0.661417,-2.36457 -0.227953,-5.94094 -0.255118,-8.27126 -0.100394,-8.57126 -2.12008,-13.8862 -4.28504,-22.3465 -1.78583,10.1291 -1.57205,18.8102 -2.41299,23.5193l-1.53189 4.72913c-0.540945,1.97244 -0.831496,4.58622 -1.18346,6.64724 -3.57992,21.0071 -15.3768,43.9772 -23.7744,62.5902 -1.64055,3.6378 -3.18307,6.09803 -4.60394,9.11102 -1.62402,3.44409 -2.48858,6.14646 -4.31693,9.52087 -7.98189,14.7295 -15.4346,30.4949 -26.1106,43.5543l0.549213 0.0814961 -17.5594 22.6287z"/>
     <g style="clip-path:url(#id0)">
      <g>
       <path id="_4253628001" class="fil3" d="M-146.281 307.274l-1.43504 3.15945 -0.119291 0.93189c-0.543307,10.7232 0.759449,17.1909 3.98976,26.7602 0.309449,0.920079 1.80827,5.05157 2.18504,5.51457 1.30039,1.60276 4.63701,1.53071 8.43543,7.04646 1.19882,1.74094 1.64646,3.81024 2.56181,5.13071 0.683858,3.18189 0.788976,3.42283 -2.31732,4.11142 -4.2248,0.936614 -8.50866,0.883465 -12.7335,0.0106299 -3.70512,-0.764173 -1.99843,-1.85315 -3.32126,-4.18937 0.520866,-4.38898 -3.54685,-6.32008 -5.60551,-8.46378 -1.3122,-1.36654 -1.15866,-0.970866 -1.49291,-3.40157 -2.00079,-14.55 -8.74016,-25.7563 -9.54094,-28.6972l-0.826772 -15c-3.93898,3.6248 -5.90669,8.09291 -6.29646,13.7079 -0.432283,6.2315 0.709843,12.2031 2.21575,18.0272 0.662598,2.56063 1.59094,5.40354 2.42717,7.70433 3.2811,9.02717 3.05079,1.64409 9.75,10.6169 1.95827,2.62323 1.86614,4.07362 3.18189,6.59173 0.320079,2.77559 -0.354331,2.67756 -3.27756,3.27402 -3.7878,0.772441 -8.2689,0.612992 -12.026,-0.177165 -3.79134,-0.798425 -2.09409,-1.30394 -3.18071,-3.89764 0.194882,-3.05551 -1.7563,-5.4874 -3.34488,-6.68504 -3.82087,-2.88071 -3.49724,-3.05079 -4.0689,-6.50787 -1.35709,-8.21693 -4.1374,-16.0193 -7.43976,-23.4921 -1.09488,-2.47913 -2.54173,-4.89685 -3.42402,-7.1622 -1.58268,-4.06181 1.02992,-10.2862 1.49291,-18.6165 0.628346,-11.3268 -0.76063,-27.8799 -3.38031,-38.5323 -4.38307,-17.824 -3.87874,-18.1949 -5.66339,-36.3283 -4.84488,21.4276 -1.46693,28.7846 -0.791339,46.35 0.113386,2.9622 0.327165,5.50394 0.255118,8.55827 -0.0519685,2.25827 -0.957874,6.05197 -0.276378,7.85551 0.475984,1.26024 2.07874,3.39331 2.87126,5.29606 7.97126,19.1528 -2.45787,31.3866 -4.34173,40.9547 -0.229134,1.15866 -0.434646,2.34449 -0.565748,3.55512 -0.185433,1.70906 0.0106299,2.28425 -0.716929,3.89528 -2.6315,-7.81181 -1.40551,-7.51772 -0.662598,-15.5173l-0.791339 -16.2449 -3.23504 9.40276c-0.745276,-0.690945 -0.829134,-0.870472 -1.37835,-2.55236 -1.68307,-5.16024 -2.85354,-10.9394 -1.24843,-16.2862 1.63701,-5.45669 6.51732,-7.23898 7.41142,-15.887 0.484252,-4.67362 0.368504,-9.60472 -0.00944882,-14.2406 -0.333071,-6.62835 -1.47874,-13.1752 -1.62638,-19.9228 -0.146457,-6.76772 0.216142,-13.1906 1.28976,-19.8402 2.34213,-14.5063 9.91299,-33.6791 21.1654,-42.3142 10.7528,-8.24882 13.2661,-6.55039 23.5547,-4.26378 43.3996,9.64016 101.252,12.5681 144.631,3.96024 17.5843,-3.49016 18.2906,-4.89213 33.0957,-9.23268l-2.93031 -3.50906c-1.72795,-2.68937 -3.18307,-11.5606 0.444094,-14.1201 5.78268,1.99961 8.98228,3.39449 15.2846,4.03346 -4.11614,-12.8764 -4.33583,-9.93661 -0.911811,-20.7591 0.888189,-0.699213 1.49646,-2.47795 3.74764,-1.57087 2.46732,0.995669 0.918898,6.25157 5.5689,12.7594 4.06181,5.68228 3.77008,2.73071 14.2417,3.29764 3.26929,0.177165 5.63976,1.91102 9.75827,-8.13425 0.869291,-2.1189 1.67008,-7.89685 4.93819,-6.62244 2.35276,0.917717 2.71063,6.69449 2.60787,9.44528l-2.46732 9.77717 4.41142 5.1378c3.44409,4.09961 5.26063,7.42087 8.79921,11.1508 1.59803,1.68425 2.93976,3.61063 4.57087,5.59134 5.1626,6.26929 22.7079,8.81693 23.3551,16.8295 0.465354,5.73661 -4.69252,11.5051 -5.88425,13.839 -1.21417,2.38465 -2.54409,3.7063 -4.57913,5.19213 -1.01693,0.741732 -1.76575,1.13976 -3.2185,1.68425 -1.68898,0.633071 -1.83898,0.981496 -3.44055,1.82244 -7.78583,4.0937 -12.476,-1.8189 -14.5795,-2.52992l-16.5579 -3.71811c-2.79449,3.53504 -3.37323,6.23031 -10.0358,10.239 -4.77756,2.87362 -2.07047,5.09646 -5.67756,15.0862 -4.63701,12.8409 -9.3248,14.8972 -11.8287,19.0937 -1.38898,2.32795 -2.14488,5.13071 -3.24685,7.06299l-1.58386 5.74606c-0.206693,1.74094 -0.755906,3.55984 -1.05118,5.39173 -0.433465,2.69291 -0.157087,4.8874 -1.56732,6.48425 -11.0693,12.5244 -16.7835,12.228 -18.3531,13.8071l-8.47441 23.6492c-0.45,2.86654 -0.200787,20.3882 0.562205,23.9197 0.092126,0.427559 5.12008,6.57874 6.81496,9.33189 0.855118,1.38661 2.01378,4.16102 2.7874,4.9878 0.39685,2.63976 -0.685039,2.7685 -3.12638,3.37323 -3.68858,0.912992 -12.965,0.403937 -14.1106,-1.63228 -0.250394,-0.446457 -0.224409,-0.757087 -0.388583,-1.28268 -0.388583,-1.24488 0.250394,-0.275197 -0.467717,-1.22362 -0.0307087,-4.35118 -5.50157,-4.02402 -6.19016,-7.90157 -0.416929,-2.35394 1.27677,-8.80748 1.30039,-12.4807 0.0625984,-9.7748 -1.82126,-16.2969 -3.44528,-25.1953l0.23622 -2.85827 1.09724 -4.39606 0.405118 -4.99961 -2.75315 -0.389764c-0.359055,2.9752 -2.74724,10.6571 -4.61693,11.8819 -3.24331,1.57559 -9.23386,5.86299 -12.887,8.27126 -2.51575,1.65827 -2.00197,1.26496 -3.99567,3.34134 -0.83622,-2.37047 -0.433465,-0.708661 -1.08425,-1.5378l-0.338976 -22.4185c-14.485,1.14921 -17.2618,4.47283 -37.4138,3.13228 -15.2528,-1.01457 -18.2953,-3.42402 -30.939,-9.46654l-3.43819 4.74213c0.720472,1.43622 4.45157,6.25984 1.06772,9.55394 -1.14685,1.11496 -3.30827,1.5 -5.10472,0.638976l-3.23031 -3.72047c-1.82598,0.733465 -5.50276,3.3 -9.83976,4.4315l-9.80787 1.51535 -7.80827 -0.737008z"/>
      </g>
     </g>
     <path class="fil4" d="M178.429 303.495c-11.2039,-1.81063 -22.4209,-3.67913 -31.5413,-5.32913l14.9858 -19.311 0.114567 0.00708661 13.402 -15.8528c2.66811,-3.34252 4.95591,-4.48465 7.31811,-7.64528l26.0705 -35.1661c3.63661,-5.15669 5.46969,-10.2827 11.5594,-18.4843 5.77323,-7.7752 11.3043,-23.3575 15.2634,-32.5016 6.28937,-14.5287 9.25039,-37.7693 10.9571,-54.3343 -2.80512,1.2378 -2.99646,1.12323 -5.40472,3.14055 -4.35472,3.64606 -8.59488,11.4307 -13.1327,17.4437l-2.66575 -7.42795c-3.86811,1.70787 -8.28071,7.86614 -10.5579,12.678 -1.13031,2.39173 -2.67047,6.01181 -2.88189,8.54646 -0.277559,3.29646 0.772441,6.67087 -0.943701,10.0323l0.788976 5.36811c-4.74331,-3.04606 -3.35079,-1.65827 -4.8815,-4.42323l-0.856299 -1.47638c-1.47992,-1.28976 -2.28425,-4.7315 -2.79331,-6.77835 -3.84213,-15.4547 0.373228,-37.1327 16.4705,-47.7094 4.79409,-3.14882 4.91575,-1.7185 6.72874,-4.86969 -4.31693,-0.395669 -4.37835,1.0878 -10.4705,4.35354l-11.0185 4.77874 -1.24724 -4.19646c-10.3122,9.87992 -6.09331,-5.17441 -21.0307,29.0894 -9.54803,-2.51457 -5.44488,-22.7091 -4.63228,-24.7098l13.5839 -20.4224c-2.76732,0.15 -10.389,3.71811 -14.8535,5.33031 4.09252,-20.524 40.8709,-23.2323 48.9898,-19.963l18.5374 9.01181c-6.15118,-13.9394 -29.4827,-16.0854 -41.6764,-17.2878 2.52756,-9.59409 28.7657,-12.7039 28.9417,-12.7866 -2.89606,-2.53465 -5.58425,-1.95945 -9.76417,-2.54409 2.38228,-3.00354 2.74843,-4.41732 7.06417,-5.12362 3.74646,-0.614173 6.38504,0.770079 9.71693,2.52874 3.14882,0.0425197 5.55236,2.01378 8.09173,3.97677 5.39764,4.17283 10.1362,15.7134 13.1587,22.0488 2.67638,-6.26811 5.24528,-10.8295 10.2059,-14.3858l5.26417 -3.34016c10.8626,-6.09685 19.8402,-4.11024 29.5299,1.42559 8.37992,4.78701 7.15984,4.75984 11.1886,13.2874 -14.8181,-2.6126 -15.7228,-6.07677 -30.7299,-0.45l9.29764 3.62835 -0.509055 2.89134c-8.58898,0.467717 -10.187,2.11535 -16.9524,5.9563 6.50787,0.596457 19.937,-9.50787 38.8063,5.77795 5.20984,4.2189 7.42205,6.75354 11.2299,13.2591 1.61102,2.75315 2.45669,5.3622 3.43465,8.58189 1.28386,4.22717 1.73268,4.96654 0.738189,8.77441 -1.70433,0.462992 -3.77244,-2.13189 -7.99488,-5.38583 0.152362,2.80984 1.04173,5.53346 1.54843,8.20866 0.564567,2.97756 0.713386,5.81575 0.734646,9.6248l-2.22638 16.0713c-0.220866,0.993307 -0.314173,1.5378 -0.705118,2.47323 -1.08661,2.59016 0.0933071,0.69685 -1.08898,1.65236l-2.39882 3.74882 -1.84843 -2.2063 -0.542126 -2.07165c-0.0425197,-0.19252 -0.103937,-0.510236 -0.15,-0.725197 -0.26811,-1.26614 -0.314173,-1.95236 -0.786614,-3.66614l-7.16339 -17.7992 -1.01929 5.78386c-2.93976,-0.780709 -1.82362,-0.31063 -3.68622,-1.64528 0.322441,3.71102 6.21614,12.998 6.5563,14.8429l-0.598819 19.0063c-3.50669,-1.63228 -3.5374,-4.78701 -8.73307,-12.4724 -2.69055,15.2622 -7.22953,21.6969 -14.5205,32.3528 -2.14488,3.1311 -4.28268,6.27874 -7.38425,7.32756 -1.93346,1.1563 -4.87795,3.49134 -6.62244,4.98307l-4.40669 1.20945c1.93937,-10.9972 6.6378,-7.91457 8.33031,-30.3343l-8.22165 1.53189 3.11575 -23.3031c-4.27559,1.88622 0.219685,1.00748 -7.59803,3.63071 -0.661417,-2.36457 -0.227953,-5.94094 -0.255118,-8.27126 -0.100394,-8.57126 -2.12008,-13.8862 -4.28504,-22.3465 -1.78583,10.1291 -1.57205,18.8102 -2.41299,23.5193l-1.53189 4.72913c-0.540945,1.97244 -0.831496,4.58622 -1.18346,6.64724 -3.57992,21.0071 -15.3768,43.9772 -23.7744,62.5902 -1.64055,3.6378 -3.18307,6.09803 -4.60394,9.11102 -1.62402,3.44409 -2.48858,6.14646 -4.31693,9.52087 -7.98189,14.7295 -15.4346,30.4949 -26.1106,43.5543l0.549213 0.0814961 -17.5594 22.6287z"/>
     <path id="_255986864" class="fil5" d="M245.562 114.868c0.775984,0.350787 0.514961,1.28858 1.74803,1.91339 2.15787,0.566929 8.11299,-0.479528 10.128,-1.14094 1.43976,-0.472441 2.80866,-1.06299 3.99685,-1.74449 4.00157,-2.29606 6.26575,-4.84724 7.21654,-9.99449 0.66378,-3.59409 0.174803,-6.99567 -0.956693,-10.0417 -0.101575,-0.103937 -0.0661417,-0.0744094 -0.185433,-0.229134 -1.4315,-1.86969 -1.45512,-1.45748 -2.76732,-1.0122 -0.820866,-2.30787 -0.360236,-1.53425 -1.31929,-2.67165 -0.152362,-0.218504 -0.174803,-0.415748 -0.298819,-0.627165 -0.564567,-0.964961 -2.85354,-1.81772 -3.46181,-2.28898 -3.62953,-1.13031 -8.23701,-0.00590551 -11.3362,1.34291 -7.60866,3.31181 -8.85,10.637 -7.8874,18.2929 0.262205,2.08228 0.454724,3.78898 1.54961,5.12835 0.957874,1.17047 3.1689,2.12008 3.57402,3.07323z"/>
     <g style="clip-path:url(#id1)">
      <g>
       <path id="_2559024241" class="fil3" d="M-146.281 307.274l-1.43504 3.15945 -0.119291 0.93189c-0.543307,10.7232 0.759449,17.1909 3.98976,26.7602 0.309449,0.920079 1.80827,5.05157 2.18504,5.51457 1.30039,1.60276 4.63701,1.53071 8.43543,7.04646 1.19882,1.74094 1.64646,3.81024 2.56181,5.13071 0.683858,3.18189 0.788976,3.42283 -2.31732,4.11142 -4.2248,0.936614 -8.50866,0.883465 -12.7335,0.0106299 -3.70512,-0.764173 -1.99843,-1.85315 -3.32126,-4.18937 0.520866,-4.38898 -3.54685,-6.32008 -5.60551,-8.46378 -1.3122,-1.36654 -1.15866,-0.970866 -1.49291,-3.40157 -2.00079,-14.55 -8.74016,-25.7563 -9.54094,-28.6972l-0.826772 -15c-3.93898,3.6248 -5.90669,8.09291 -6.29646,13.7079 -0.432283,6.2315 0.709843,12.2031 2.21575,18.0272 0.662598,2.56063 1.59094,5.40354 2.42717,7.70433 3.2811,9.02717 3.05079,1.64409 9.75,10.6169 1.95827,2.62323 1.86614,4.07362 3.18189,6.59173 0.320079,2.77559 -0.354331,2.67756 -3.27756,3.27402 -3.7878,0.772441 -8.2689,0.612992 -12.026,-0.177165 -3.79134,-0.798425 -2.09409,-1.30394 -3.18071,-3.89764 0.194882,-3.05551 -1.7563,-5.4874 -3.34488,-6.68504 -3.82087,-2.88071 -3.49724,-3.05079 -4.0689,-6.50787 -1.35709,-8.21693 -4.1374,-16.0193 -7.43976,-23.4921 -1.09488,-2.47913 -2.54173,-4.89685 -3.42402,-7.1622 -1.58268,-4.06181 1.02992,-10.2862 1.49291,-18.6165 0.628346,-11.3268 -0.76063,-27.8799 -3.38031,-38.5323 -4.38307,-17.824 -3.87874,-18.1949 -5.66339,-36.3283 -4.84488,21.4276 -1.46693,28.7846 -0.791339,46.35 0.113386,2.9622 0.327165,5.50394 0.255118,8.55827 -0.0519685,2.25827 -0.957874,6.05197 -0.276378,7.85551 0.475984,1.26024 2.07874,3.39331 2.87126,5.29606 7.97126,19.1528 -2.45787,31.3866 -4.34173,40.9547 -0.229134,1.15866 -0.434646,2.34449 -0.565748,3.55512 -0.185433,1.70906 0.0106299,2.28425 -0.716929,3.89528 -2.6315,-7.81181 -1.40551,-7.51772 -0.662598,-15.5173l-0.791339 -16.2449 -3.23504 9.40276c-0.745276,-0.690945 -0.829134,-0.870472 -1.37835,-2.55236 -1.68307,-5.16024 -2.85354,-10.9394 -1.24843,-16.2862 1.63701,-5.45669 6.51732,-7.23898 7.41142,-15.887 0.484252,-4.67362 0.368504,-9.60472 -0.00944882,-14.2406 -0.333071,-6.62835 -1.47874,-13.1752 -1.62638,-19.9228 -0.146457,-6.76772 0.216142,-13.1906 1.28976,-19.8402 2.34213,-14.5063 9.91299,-33.6791 21.1654,-42.3142 10.7528,-8.24882 13.2661,-6.55039 23.5547,-4.26378 43.3996,9.64016 101.252,12.5681 144.631,3.96024 17.5843,-3.49016 18.2906,-4.89213 33.0957,-9.23268l-2.93031 -3.50906c-1.72795,-2.68937 -3.18307,-11.5606 0.444094,-14.1201 5.78268,1.99961 8.98228,3.39449 15.2846,4.03346 -4.11614,-12.8764 -4.33583,-9.93661 -0.911811,-20.7591 0.888189,-0.699213 1.49646,-2.47795 3.74764,-1.57087 2.46732,0.995669 0.918898,6.25157 5.5689,12.7594 4.06181,5.68228 3.77008,2.73071 14.2417,3.29764 3.26929,0.177165 5.63976,1.91102 9.75827,-8.13425 0.869291,-2.1189 1.67008,-7.89685 4.93819,-6.62244 2.35276,0.917717 2.71063,6.69449 2.60787,9.44528l-2.46732 9.77717 4.41142 5.1378c3.44409,4.09961 5.26063,7.42087 8.79921,11.1508 1.59803,1.68425 2.93976,3.61063 4.57087,5.59134 5.1626,6.26929 22.7079,8.81693 23.3551,16.8295 0.465354,5.73661 -4.69252,11.5051 -5.88425,13.839 -1.21417,2.38465 -2.54409,3.7063 -4.57913,5.19213 -1.01693,0.741732 -1.76575,1.13976 -3.2185,1.68425 -1.68898,0.633071 -1.83898,0.981496 -3.44055,1.82244 -7.78583,4.0937 -12.476,-1.8189 -14.5795,-2.52992l-16.5579 -3.71811c-2.79449,3.53504 -3.37323,6.23031 -10.0358,10.239 -4.77756,2.87362 -2.07047,5.09646 -5.67756,15.0862 -4.63701,12.8409 -9.3248,14.8972 -11.8287,19.0937 -1.38898,2.32795 -2.14488,5.13071 -3.24685,7.06299l-1.58386 5.74606c-0.206693,1.74094 -0.755906,3.55984 -1.05118,5.39173 -0.433465,2.69291 -0.157087,4.8874 -1.56732,6.48425 -11.0693,12.5244 -16.7835,12.228 -18.3531,13.8071l-8.47441 23.6492c-0.45,2.86654 -0.200787,20.3882 0.562205,23.9197 0.092126,0.427559 5.12008,6.57874 6.81496,9.33189 0.855118,1.38661 2.01378,4.16102 2.7874,4.9878 0.39685,2.63976 -0.685039,2.7685 -3.12638,3.37323 -3.68858,0.912992 -12.965,0.403937 -14.1106,-1.63228 -0.250394,-0.446457 -0.224409,-0.757087 -0.388583,-1.28268 -0.388583,-1.24488 0.250394,-0.275197 -0.467717,-1.22362 -0.0307087,-4.35118 -5.50157,-4.02402 -6.19016,-7.90157 -0.416929,-2.35394 1.27677,-8.80748 1.30039,-12.4807 0.0625984,-9.7748 -1.82126,-16.2969 -3.44528,-25.1953l0.23622 -2.85827 1.09724 -4.39606 0.405118 -4.99961 -2.75315 -0.389764c-0.359055,2.9752 -2.74724,10.6571 -4.61693,11.8819 -3.24331,1.57559 -9.23386,5.86299 -12.887,8.27126 -2.51575,1.65827 -2.00197,1.26496 -3.99567,3.34134 -0.83622,-2.37047 -0.433465,-0.708661 -1.08425,-1.5378l-0.338976 -22.4185c-14.485,1.14921 -17.2618,4.47283 -37.4138,3.13228 -15.2528,-1.01457 -18.2953,-3.42402 -30.939,-9.46654l-3.43819 4.74213c0.720472,1.43622 4.45157,6.25984 1.06772,9.55394 -1.14685,1.11496 -3.30827,1.5 -5.10472,0.638976l-3.23031 -3.72047c-1.82598,0.733465 -5.50276,3.3 -9.83976,4.4315l-9.80787 1.51535 -7.80827 -0.737008z"/>
      </g>
     </g>
     <path class="fil4" d="M245.562 114.868c0.775984,0.350787 0.514961,1.28858 1.74803,1.91339 2.15787,0.566929 8.11299,-0.479528 10.128,-1.14094 1.43976,-0.472441 2.80866,-1.06299 3.99685,-1.74449 4.00157,-2.29606 6.26575,-4.84724 7.21654,-9.99449 0.66378,-3.59409 0.174803,-6.99567 -0.956693,-10.0417 -0.101575,-0.103937 -0.0661417,-0.0744094 -0.185433,-0.229134 -1.4315,-1.86969 -1.45512,-1.45748 -2.76732,-1.0122 -0.820866,-2.30787 -0.360236,-1.53425 -1.31929,-2.67165 -0.152362,-0.218504 -0.174803,-0.415748 -0.298819,-0.627165 -0.564567,-0.964961 -2.85354,-1.81772 -3.46181,-2.28898 -3.62953,-1.13031 -8.23701,-0.00590551 -11.3362,1.34291 -7.60866,3.31181 -8.85,10.637 -7.8874,18.2929 0.262205,2.08228 0.454724,3.78898 1.54961,5.12835 0.957874,1.17047 3.1689,2.12008 3.57402,3.07323z"/>
    </g>
    <path id="_255986984" class="fil6" d="M138.788 3.49606c-19.3382,56.6339 -1.40906,101.036 40.3134,139.894 33.6354,31.3252 56.687,78.3933 -0.673228,160.104 -64.6441,-26.6929 -100.261,-58.0736 -117.188,-90.2953 0.311811,-0.444094 0.64252,-0.897638 1.01339,-1.36654l16.5579 3.71811c2.10354,0.711024 6.7937,6.62362 14.5795,2.52992 1.60157,-0.840945 1.75157,-1.18937 3.44055,-1.82244 1.45276,-0.544488 2.20157,-0.94252 3.2185,-1.68425 2.03504,-1.48583 3.36496,-2.80748 4.57913,-5.19213 1.19173,-2.33386 6.34961,-8.10236 5.88425,-13.8378 -0.647244,-8.01378 -18.1925,-10.5614 -23.3551,-16.8307 -1.62992,-1.98071 -2.97283,-3.90709 -4.57087,-5.59134 -3.53858,-3.72992 -5.35512,-7.05118 -8.79803,-11.1508l-4.4126 -5.1378 2.46732 -9.77717c0.102756,-2.74961 -0.255118,-8.52756 -2.60787,-9.44409 -3.26693,-1.27559 -4.0689,4.50236 -4.93819,6.62126 -4.1185,10.0453 -6.48898,8.31142 -9.75827,8.13425 -2.35276,-0.127559 -4.1622,-0.0767717 -5.59961,0.0129921 6.45118,-79.5484 89.9799,-149.27 89.8476,-148.885z"/>
    <path id="_255901368" class="fil7" d="M87.2965 14.9386c-9.21024,59.1307 16.1575,99.7441 63.9933,130.767 38.5642,25.0098 69.4394,67.3594 27.1382,157.789 -68.3374,-15.0709 -108.872,-39.8102 -131.126,-68.6244 2.45315,-8.06693 0.526772,-10.1587 4.91575,-12.7984 6.6626,-4.00866 7.24134,-6.70512 10.0358,-10.239l16.5579 3.71811c2.10354,0.711024 6.7937,6.62362 14.5795,2.52992 1.60157,-0.840945 1.75157,-1.18937 3.44055,-1.82244 1.45276,-0.544488 2.20157,-0.94252 3.2185,-1.68425 2.03504,-1.48583 3.36496,-2.80748 4.57913,-5.19213 1.19173,-2.33386 6.34961,-8.10236 5.88425,-13.8378 -0.647244,-8.01378 -18.1925,-10.5614 -23.3551,-16.8307 -1.62992,-1.98071 -2.97283,-3.90709 -4.57087,-5.59134 -3.53858,-3.72992 -5.35512,-7.05118 -8.79803,-11.1508l-4.4126 -5.1378 2.46732 -9.77717c0.102756,-2.74961 -0.255118,-8.52756 -2.60787,-9.44409 -3.26693,-1.27559 -4.0689,4.50236 -4.93819,6.62126 -4.1185,10.0453 -6.48898,8.31142 -9.75827,8.13425 -10.4717,-0.566929 -10.1787,2.38465 -14.2417,-3.29764 -4.65,-6.50787 -3.10157,-11.7638 -5.5689,-12.7594 -2.25,-0.907087 -2.85945,0.871654 -3.74764,1.57087 -3.42402,10.8224 -3.20551,7.88268 0.911811,20.7591 -3.02126,-0.305906 -5.32795,-0.785433 -7.54961,-1.42205 4.10787,-72.8303 63.0106,-142.649 62.9528,-142.28z"/>
    <path id="_255889992" class="fil8" d="M38.5736 35.1461c1.19764,59.8323 33.2315,95.4248 85.728,117.67 42.3213,17.9327 80.0811,54.2776 54.1264,150.679 -72.2256,-3.07323 -117.077,-21.4382 -143.717,-47.2429 2.50394,-4.19646 7.19173,-6.25276 11.8287,-19.0937 3.60709,-9.98976 0.9,-12.2126 5.67756,-15.0862 6.6626,-4.00866 7.24134,-6.70512 10.0358,-10.239l16.5579 3.71811c2.10354,0.711024 6.7937,6.62362 14.5795,2.52992 1.60157,-0.840945 1.75157,-1.18937 3.44055,-1.82244 1.45276,-0.544488 2.20157,-0.94252 3.2185,-1.68425 2.03504,-1.48583 3.36496,-2.80748 4.57913,-5.19213 1.19173,-2.33386 6.34961,-8.10236 5.88425,-13.8378 -0.647244,-8.01378 -18.1925,-10.5614 -23.3551,-16.8307 -1.62992,-1.98071 -2.97283,-3.90709 -4.57087,-5.59134 -3.53858,-3.72992 -5.35512,-7.05118 -8.79803,-11.1508l-4.4126 -5.1378 2.46732 -9.77717c0.102756,-2.74961 -0.255118,-8.52756 -2.60787,-9.44409 -3.26693,-1.27559 -4.0689,4.50236 -4.93819,6.62126 -4.1185,10.0453 -6.48898,8.31142 -9.75827,8.13425 -10.4717,-0.566929 -10.1787,2.38465 -14.2417,-3.29764 -4.65,-6.50787 -3.10157,-11.7638 -5.5689,-12.7594 -2.25,-0.907087 -2.85945,0.871654 -3.74764,1.57087 -3.42402,10.8224 -3.20551,7.88268 0.911811,20.7591 -6.30236,-0.638976 -9.50197,-2.03268 -15.2846,-4.03346 -3.62717,2.55945 -2.17205,11.4319 -0.444094,14.1213l2.93031 3.50787c-9.1252,2.67638 -12.8953,4.23425 -18.5622,5.85354 -4.50709,-70.0961 38.035,-143.302 38.0409,-142.944z"/>
    <g style="clip-path:url(#id2)">
     <g>
      <path id="_2559028561" class="fil9" d="M-146.281 307.274l-1.43504 3.15945 -0.119291 0.93189c-0.543307,10.7232 0.759449,17.1909 3.98976,26.7602 0.309449,0.920079 1.80827,5.05157 2.18504,5.51457 1.30039,1.60276 4.63701,1.53071 8.43543,7.04646 1.19882,1.74094 1.64646,3.81024 2.56181,5.13071 0.683858,3.18189 0.788976,3.42283 -2.31732,4.11142 -4.2248,0.936614 -8.50866,0.883465 -12.7335,0.0106299 -3.70512,-0.764173 -1.99843,-1.85315 -3.32126,-4.18937 0.520866,-4.38898 -3.54685,-6.32008 -5.60551,-8.46378 -1.3122,-1.36654 -1.15866,-0.970866 -1.49291,-3.40157 -2.00079,-14.55 -8.74016,-25.7563 -9.54094,-28.6972l-0.826772 -15c-3.93898,3.6248 -5.90669,8.09291 -6.29646,13.7079 -0.432283,6.2315 0.709843,12.2031 2.21575,18.0272 0.662598,2.56063 1.59094,5.40354 2.42717,7.70433 3.2811,9.02717 3.05079,1.64409 9.75,10.6169 1.95827,2.62323 1.86614,4.07362 3.18189,6.59173 0.320079,2.77559 -0.354331,2.67756 -3.27756,3.27402 -3.7878,0.772441 -8.2689,0.612992 -12.026,-0.177165 -3.79134,-0.798425 -2.09409,-1.30394 -3.18071,-3.89764 0.194882,-3.05551 -1.7563,-5.4874 -3.34488,-6.68504 -3.82087,-2.88071 -3.49724,-3.05079 -4.0689,-6.50787 -1.35709,-8.21693 -4.1374,-16.0193 -7.43976,-23.4921 -1.09488,-2.47913 -2.54173,-4.89685 -3.42402,-7.1622 -1.58268,-4.06181 1.02992,-10.2862 1.49291,-18.6165 0.628346,-11.3268 -0.76063,-27.8799 -3.38031,-38.5323 -4.38307,-17.824 -3.87874,-18.1949 -5.66339,-36.3283 -4.84488,21.4276 -1.46693,28.7846 -0.791339,46.35 0.113386,2.9622 0.327165,5.50394 0.255118,8.55827 -0.0519685,2.25827 -0.957874,6.05197 -0.276378,7.85551 0.475984,1.26024 2.07874,3.39331 2.87126,5.29606 7.97126,19.1528 -2.45787,31.3866 -4.34173,40.9547 -0.229134,1.15866 -0.434646,2.34449 -0.565748,3.55512 -0.185433,1.70906 0.0106299,2.28425 -0.716929,3.89528 -2.6315,-7.81181 -1.40551,-7.51772 -0.662598,-15.5173l-0.791339 -16.2449 -3.23504 9.40276c-0.745276,-0.690945 -0.829134,-0.870472 -1.37835,-2.55236 -1.68307,-5.16024 -2.85354,-10.9394 -1.24843,-16.2862 1.63701,-5.45669 6.51732,-7.23898 7.41142,-15.887 0.484252,-4.67362 0.368504,-9.60472 -0.00944882,-14.2406 -0.333071,-6.62835 -1.47874,-13.1752 -1.62638,-19.9228 -0.146457,-6.76772 0.216142,-13.1906 1.28976,-19.8402 2.34213,-14.5063 9.91299,-33.6791 21.1654,-42.3142 10.7528,-8.24882 13.2661,-6.55039 23.5547,-4.26378 43.3996,9.64016 101.252,12.5681 144.631,3.96024 17.5843,-3.49016 18.2906,-4.89213 33.0957,-9.23268l-2.93031 -3.50906c-1.72795,-2.68937 -3.18307,-11.5606 0.444094,-14.1201 5.78268,1.99961 8.98228,3.39449 15.2846,4.03346 -4.11614,-12.8764 -4.33583,-9.93661 -0.911811,-20.7591 0.888189,-0.699213 1.49646,-2.47795 3.74764,-1.57087 2.46732,0.995669 0.918898,6.25157 5.5689,12.7594 4.06181,5.68228 3.77008,2.73071 14.2417,3.29764 3.26929,0.177165 5.63976,1.91102 9.75827,-8.13425 0.869291,-2.1189 1.67008,-7.89685 4.93819,-6.62244 2.35276,0.917717 2.71063,6.69449 2.60787,9.44528l-2.46732 9.77717 4.41142 5.1378c3.44409,4.09961 5.26063,7.42087 8.79921,11.1508 1.59803,1.68425 2.93976,3.61063 4.57087,5.59134 5.1626,6.26929 22.7079,8.81693 23.3551,16.8295 0.465354,5.73661 -4.69252,11.5051 -5.88425,13.839 -1.21417,2.38465 -2.54409,3.7063 -4.57913,5.19213 -1.01693,0.741732 -1.76575,1.13976 -3.2185,1.68425 -1.68898,0.633071 -1.83898,0.981496 -3.44055,1.82244 -7.78583,4.0937 -12.476,-1.8189 -14.5795,-2.52992l-16.5579 -3.71811c-2.79449,3.53504 -3.37323,6.23031 -10.0358,10.239 -4.77756,2.87362 -2.07047,5.09646 -5.67756,15.0862 -4.63701,12.8409 -9.3248,14.8972 -11.8287,19.0937 -1.38898,2.32795 -2.14488,5.13071 -3.24685,7.06299l-1.58386 5.74606c-0.206693,1.74094 -0.755906,3.55984 -1.05118,5.39173 -0.433465,2.69291 -0.157087,4.8874 -1.56732,6.48425 -11.0693,12.5244 -16.7835,12.228 -18.3531,13.8071l-8.47441 23.6492c-0.45,2.86654 -0.200787,20.3882 0.562205,23.9197 0.092126,0.427559 5.12008,6.57874 6.81496,9.33189 0.855118,1.38661 2.01378,4.16102 2.7874,4.9878 0.39685,2.63976 -0.685039,2.7685 -3.12638,3.37323 -3.68858,0.912992 -12.965,0.403937 -14.1106,-1.63228 -0.250394,-0.446457 -0.224409,-0.757087 -0.388583,-1.28268 -0.388583,-1.24488 0.250394,-0.275197 -0.467717,-1.22362 -0.0307087,-4.35118 -5.50157,-4.02402 -6.19016,-7.90157 -0.416929,-2.35394 1.27677,-8.80748 1.30039,-12.4807 0.0625984,-9.7748 -1.82126,-16.2969 -3.44528,-25.1953l0.23622 -2.85827 1.09724 -4.39606 0.405118 -4.99961 -2.75315 -0.389764c-0.359055,2.9752 -2.74724,10.6571 -4.61693,11.8819 -3.24331,1.57559 -9.23386,5.86299 -12.887,8.27126 -2.51575,1.65827 -2.00197,1.26496 -3.99567,3.34134 -0.83622,-2.37047 -0.433465,-0.708661 -1.08425,-1.5378l-0.338976 -22.4185c-14.485,1.14921 -17.2618,4.47283 -37.4138,3.13228 -15.2528,-1.01457 -18.2953,-3.42402 -30.939,-9.46654l-3.43819 4.74213c0.720472,1.43622 4.45157,6.25984 1.06772,9.55394 -1.14685,1.11496 -3.30827,1.5 -5.10472,0.638976l-3.23031 -3.72047c-1.82598,0.733465 -5.50276,3.3 -9.83976,4.4315l-9.80787 1.51535 -7.80827 -0.737008z"/>
     </g>
    </g>
    <path class="fil4" d="M38.5736 35.1461c1.19764,59.8323 33.2315,95.4248 85.728,117.67 42.3213,17.9327 80.0811,54.2776 54.1264,150.679 -72.2256,-3.07323 -117.077,-21.4382 -143.717,-47.2429 2.50394,-4.19646 7.19173,-6.25276 11.8287,-19.0937 3.60709,-9.98976 0.9,-12.2126 5.67756,-15.0862 6.6626,-4.00866 7.24134,-6.70512 10.0358,-10.239l16.5579 3.71811c2.10354,0.711024 6.7937,6.62362 14.5795,2.52992 1.60157,-0.840945 1.75157,-1.18937 3.44055,-1.82244 1.45276,-0.544488 2.20157,-0.94252 3.2185,-1.68425 2.03504,-1.48583 3.36496,-2.80748 4.57913,-5.19213 1.19173,-2.33386 6.34961,-8.10236 5.88425,-13.8378 -0.647244,-8.01378 -18.1925,-10.5614 -23.3551,-16.8307 -1.62992,-1.98071 -2.97283,-3.90709 -4.57087,-5.59134 -3.53858,-3.72992 -5.35512,-7.05118 -8.79803,-11.1508l-4.4126 -5.1378 2.46732 -9.77717c0.102756,-2.74961 -0.255118,-8.52756 -2.60787,-9.44409 -3.26693,-1.27559 -4.0689,4.50236 -4.93819,6.62126 -4.1185,10.0453 -6.48898,8.31142 -9.75827,8.13425 -10.4717,-0.566929 -10.1787,2.38465 -14.2417,-3.29764 -4.65,-6.50787 -3.10157,-11.7638 -5.5689,-12.7594 -2.25,-0.907087 -2.85945,0.871654 -3.74764,1.57087 -3.42402,10.8224 -3.20551,7.88268 0.911811,20.7591 -6.30236,-0.638976 -9.50197,-2.03268 -15.2846,-4.03346 -3.62717,2.55945 -2.17205,11.4319 -0.444094,14.1213l2.93031 3.50787c-9.1252,2.67638 -12.8953,4.23425 -18.5622,5.85354 -4.50709,-70.0961 38.035,-143.302 38.0409,-142.944z"/>
   </g>
   <path id="_255987200" class="fil10" d="M743.065 233.114c22.2437,20.0445 39.1146,40.3323 49.5378,60.0638 10.3831,19.6559 16.6843,27.3638 11.0291,56.7024 -5.65512,29.3386 -53.5571,67.4764 -121.7,77.6598 -69.1134,10.3287 -178.401,-0.344882 -263.81,-22.4882 -85.4091,-22.1433 -133.858,-42.9425 -188.415,-71.6445 -55.2591,-29.0717 -100.398,-61.8543 -130.071,-94.8531 32.9504,27.4689 75.5409,53.9681 124.781,77.4638 48.698,23.237 81.9909,37.7764 162.425,58.8366 80.4343,21.0602 196.111,33.5728 265.753,23.426 68.6055,-9.99567 117.216,-50.4118 122.438,-77.6327 5.22165,-27.2209 0.885827,-27.7902 -4.56732,-42.4417 -5.47677,-14.713 -14.7756,-29.8382 -27.4004,-45.0921z"/>
  </g>
 </g>
</svg>
