<?xml version="1.0" encoding="UTF-8"?>
<!DOCTYPE svg PUBLIC "-//W3C//DTD SVG 1.1//EN" "http://www.w3.org/Graphics/SVG/1.1/DTD/svg11.dtd">
<!-- Creator: CorelDRAW X7 -->
<svg xmlns="http://www.w3.org/2000/svg" xml:space="preserve" width="550px" height="100px" version="1.1" style="shape-rendering:geometricPrecision; text-rendering:geometricPrecision; image-rendering:optimizeQuality; fill-rule:evenodd; clip-rule:evenodd"
viewBox="0 0 550 100"
 xmlns:xlink="http://www.w3.org/1999/xlink">
 <defs>
  <style type="text/css">
   <![CDATA[
    .fil1 {fill:#096BAC}
    .fil0 {fill:#DA210D}
   ]]>
  </style>
 </defs>
 <g id="Layer_x0020_1">
  <metadata id="CorelCorpID_0Corel-Layer"/>
  <g id="_2417235009216">
   <path class="fil0" d="M2 25l22 0 0 71 -22 0 0 -71zm35 36c0,-12 4,-21 10,-28 7,-6 16,-10 27,-10 12,0 22,4 28,10 6,6 10,15 10,27 0,8 -2,15 -5,21 -2,5 -6,9 -12,12 -5,3 -12,4 -20,4 -8,0 -14,-1 -20,-3 -5,-3 -9,-7 -13,-13 -3,-5 -5,-12 -5,-20zm23 0c0,7 1,12 4,15 2,3 6,5 11,5 4,0 8,-2 11,-5 2,-3 4,-8 4,-16 0,-7 -2,-12 -4,-15 -3,-3 -7,-5 -12,-5 -4,0 -8,2 -10,5 -3,3 -4,8 -4,16zm63 -36l37 0c8,0 14,2 18,5 4,4 6,10 6,17 0,7 -2,13 -6,17 -5,4 -11,6 -20,6l-12 0 0 26 -23 0 0 -71zm23 30l5 0c4,0 7,0 9,-2 2,-1 3,-3 3,-6 0,-2 -1,-4 -2,-5 -2,-2 -5,-3 -9,-3l-6 0 0 16z"/>
   <path class="fil1" d="M193 76l9 -2c1,5 2,8 5,11 2,2 5,3 9,3 4,0 8,-1 10,-3 2,-2 3,-5 3,-8 0,-2 -1,-4 -3,-6 -1,-1 -4,-2 -9,-4 -7,-2 -12,-4 -15,-5 -2,-2 -4,-4 -6,-7 -1,-2 -2,-5 -2,-9 0,-6 2,-10 6,-14 4,-3 9,-5 15,-5 4,0 8,1 11,2 3,1 6,4 7,6 2,3 3,6 4,11l-9 2c-1,-8 -5,-12 -12,-12 -5,0 -8,1 -10,3 -2,1 -3,3 -3,6 0,2 1,4 3,6 1,1 5,2 11,4 7,2 12,4 15,6 2,1 4,3 5,6 1,2 2,5 2,9 0,6 -2,11 -6,15 -4,4 -10,7 -17,7 -13,0 -21,-8 -23,-22zm93 -5l10 2c-1,8 -4,14 -8,18 -5,4 -10,7 -16,7 -7,0 -13,-3 -18,-9 -4,-6 -7,-15 -7,-27 0,-12 3,-21 7,-26 5,-6 11,-9 19,-9 5,0 10,2 14,5 4,4 7,9 8,16l-9 2c-1,-5 -3,-8 -5,-10 -2,-3 -5,-4 -8,-4 -5,0 -9,2 -12,6 -3,4 -4,11 -4,20 0,9 1,16 4,20 3,4 7,6 11,6 4,0 7,-1 9,-4 3,-3 5,-7 5,-13zm17 -55l0 -14 10 0 0 14 -10 0zm0 80l0 -68 10 0 0 68 -10 0zm62 -22l10 2c-2,7 -5,12 -9,16 -4,4 -9,6 -16,6 -7,0 -14,-3 -19,-9 -5,-6 -7,-15 -7,-26 0,-12 2,-21 7,-27 5,-6 11,-9 19,-9 7,0 13,3 18,9 5,6 7,15 7,26l0 3 -41 0c0,8 2,13 5,17 3,4 7,6 11,6 8,0 12,-5 15,-14zm-31 -18l31 0c0,-6 -1,-11 -4,-14 -3,-4 -6,-6 -11,-6 -4,0 -8,2 -11,5 -3,4 -5,9 -5,15zm53 40l0 -68 8 0 0 10c2,-4 5,-7 8,-8 3,-2 6,-3 10,-3 3,0 6,0 8,2 3,1 5,2 6,4 2,2 3,4 4,7 0,3 1,8 1,14l0 42 -10 0 0 -41c0,-5 0,-9 -1,-11 -1,-2 -2,-4 -4,-5 -2,-2 -4,-2 -6,-2 -5,0 -8,1 -11,5 -3,3 -4,9 -4,17l0 37 -9 0zm96 -25l9 2c-1,8 -4,14 -8,18 -4,4 -9,7 -15,7 -8,0 -14,-3 -18,-9 -5,-6 -7,-15 -7,-27 0,-12 2,-21 7,-26 4,-6 10,-9 18,-9 6,0 11,2 14,5 4,4 7,9 8,16l-9 2c-1,-5 -3,-8 -5,-10 -2,-3 -5,-4 -8,-4 -4,0 -8,2 -11,6 -3,4 -5,11 -5,20 0,9 2,16 5,20 2,4 6,6 11,6 3,0 6,-1 9,-4 2,-3 4,-7 5,-13zm55 3l9 2c-1,7 -4,12 -8,16 -5,4 -10,6 -16,6 -8,0 -14,-3 -19,-9 -5,-6 -7,-15 -7,-26 0,-12 2,-21 7,-27 5,-6 11,-9 19,-9 7,0 13,3 18,9 4,6 7,15 7,26l0 3 -42 0c1,8 2,13 5,17 4,4 7,6 12,6 7,0 12,-5 15,-14zm-31 -18l31 0c-1,-6 -2,-11 -4,-14 -3,-4 -7,-6 -12,-6 -4,0 -7,2 -10,5 -3,4 -5,9 -5,15z"/>
  </g>
 </g>
</svg>
