<?xml version="1.0" encoding="UTF-8"?>
<!DOCTYPE svg PUBLIC "-//W3C//DTD SVG 1.1//EN" "http://www.w3.org/Graphics/SVG/1.1/DTD/svg11.dtd">
<!-- Creator: CorelDRAW -->
<svg xmlns="http://www.w3.org/2000/svg" xml:space="preserve" width="450px" height="145px" style="shape-rendering:geometricPrecision; text-rendering:geometricPrecision; image-rendering:optimizeQuality; fill-rule:evenodd; clip-rule:evenodd"
viewBox="0 0 450 144.999"
 xmlns:xlink="http://www.w3.org/1999/xlink">
 <defs>
  <style type="text/css">
   <![CDATA[
    .fil7 {fill:none}
    .fil0 {fill:#0E9146}
    .fil3 {fill:#FEFEFE}
    .fil2 {fill:black}
    .fil10 {fill:#006CB1}
    .fil17 {fill:#028DAA}
    .fil4 {fill:#08AFE6}
    .fil1 {fill:#1F1A17}
    .fil15 {fill:#277F39}
    .fil16 {fill:#4CB2E8}
    .fil14 {fill:#4F4B4C}
    .fil8 {fill:#DA251D}
    .fil13 {fill:#E5EB14}
    .fil12 {fill:#ED1E23}
    .fil19 {fill:#F8B624}
    .fil6 {fill:#FEF400}
    .fil9 {fill:white}
    .fil5 {fill:black}
    .fil11 {fill:black;fill-rule:nonzero}
    .fil18 {fill:#F8B624;fill-rule:nonzero}
   ]]>
  </style>
 </defs>
 <g id="Layer_x0020_1">
  <metadata id="CorelCorpID_0Corel-Layer"/>
  <g id="_273159008">
   <g>
    <path id="_273166712" class="fil0" d="M97.2484 67.6654c-5.30787,0.173622 -11.0197,1.33819 -15.1299,4.91575 -1.97835,1.72323 -3.10984,3.62008 -3.89764,6.10394 -0.84685,2.67047 -1.22835,5.79449 -1.45039,8.58307 -0.121654,1.52126 -0.20315,2.97283 -0.483071,4.47992 -0.303543,1.63937 -2.57008,1.56024 -2.40709,2.96339 0.101575,0.875197 0.0366142,1.83661 2.02913,4.13622 0.662598,1.11732 1.67598,1.66535 2.90079,2.08701 2.08465,0.71811 6.90945,0.778346 9.02244,0.20315 2.25472,-0.614173 4.76339,-2.07992 6.74409,-3.3248 2.44606,-1.53543 5.36339,-4.66417 7.52362,-7.46339 2.16142,-2.79921 4.43976,-5.6811 8.51693,-7.18346 1.47992,-0.545669 2.40709,-0.539764 3.96378,-0.618898 0.733465,-0.0366142 2.00787,0.116929 2.80512,0.271654 0.797244,0.154724 1.01102,0.214961 1.77047,0.444094 0.759449,0.229134 1.08307,0.316535 1.19528,0.341339 0.113386,0.023622 -0.080315,-0.596457 -0.324803,-1.35118 -0.244488,-0.753543 -0.605906,-1.53425 -0.851575,-2.17795 -0.387402,-1.25197 -0.77126,-1.67008 -1.38543,-2.80394 -0.646063,-1.19528 -1.27323,-1.88858 -2.20866,-2.90787 -0.817323,-0.88937 -1.62874,-1.70197 -2.60079,-2.42835 -1.73386,-1.29803 -4.24134,-2.55236 -6.73465,-3.28465 -2.49213,-0.731102 -5.98583,-1.08307 -8.99764,-0.985039z"/>
    <path id="_273166592" class="fil1" d="M71.2535 99.6732c-0.0685039,-1.37244 1.95472,-1.37598 2.01378,-0.147638 0.0625984,1.30984 -1.95354,1.34646 -2.01378,0.147638zm0.735827 1.3689l-0.0708661 4.19291c-1.0311,-1.35118 -3.74409,-5.23937 -3.1311,-7.22244l1.18701 -2.44134c0.848031,-0.0129921 4.12087,-0.147638 4.66654,0.0992126 0.871654,0.394488 1.39252,2.18858 1.21063,3.4311l-3.32953 6.12283 -0.0011811 -4.29331c0.490157,-0.329528 1.09016,-0.548031 1.05827,-1.40906 -0.057874,-1.5626 -2.56654,-1.61102 -2.62205,0.011811 -0.0377953,1.07008 0.682677,0.890551 1.03228,1.50827zm-3.38622 -1.03701l-15.0815 -0.401575c5.42835,-0.668504 6.23386,-6.54685 8.78268,-7.26496 0.480709,-0.135827 2.75433,0.145276 3.57165,0.170079 1.07126,0.0318898 1.0937,0.40748 2.31732,1.65709 0.757087,0.77126 1.57559,1.03228 0.799606,2.38228 -0.655512,1.14094 -0.576378,2.10472 -0.389764,3.45709zm8.83937 -8.09764c0.901181,0.0212598 1.74685,0.0897638 2.6563,0.0590551 0.744094,-0.023622 1.8437,-0.239764 2.44606,-0.223228 1.30039,0.0354331 2.15906,1.53543 2.80748,2.55591l5.98819 4.74567c-0.451181,0.374409 -1.01457,0.607087 -1.55079,0.829134 -2.99764,1.24016 -7.17283,2.03622 -10.2343,0.798425l-3.29646 -1.60748c-0.125197,-0.894094 -0.0177165,-1.37008 -0.372047,-2.19921 -0.814961,-1.91102 -1.69134,-1.56142 0.245669,-3.56811 0.47126,-0.490157 0.905906,-0.890551 1.30984,-1.39016zm-7.43858 -12.5102l0.605906 -0.011811 3.82677 0.0011811 -0.0011811 15.8764 -4.4315 -0.00826772 0 -15.8575zm-25.7303 13.1173c6.40866,-0.0389764 8.27598,-2.42835 11.1508,-2.78031 0.729921,-0.0897638 1.13268,0.392126 1.89803,0.779528l4.03465 1.55433c-2.4815,2.20984 -3.80787,6.81614 -8.21102,6.95787 -2.2122,0.0708661 -8.25472,-5.4378 -8.87244,-6.51142zm39.5539 -1.00039c1.33937,-0.597638 2.53228,-0.806693 3.84803,-1.50472 1.87441,-0.993307 1.60276,-1.14331 3.87992,-0.205512l8.72244 2.15787c-0.470079,0.935433 -6.41693,6.54449 -8.39055,6.52441 -4.31575,-0.0448819 -5.54646,-4.70551 -8.05984,-6.97205zm-48.111 -6.7689c0.491339,-0.261024 2.21339,-0.688583 2.95866,-0.992126 4.28858,-1.74567 6.17717,-4.1374 9.23268,-0.759449 1.26969,1.40315 1.5,1.48937 2.89843,2.74961 1.96417,1.77047 2.82283,2.25709 4.12795,3.39803l-5.28543 2.02205c-1.14567,0.362598 -5.30315,1.30157 -6.29291,0.461811l-1.81772 -1.84606c-1.52598,-1.62283 -3.88346,-3.95315 -5.82165,-5.03386zm54.3106 3.80197c1.75157,-1.12323 2.69409,-2.09173 4.05,-3.42165 4.66063,-4.57087 4.4126,-5.52283 9.13583,-3.10157 2.93031,1.50236 4.14331,1.63583 5.17913,2.13425 -3.45236,2.72244 -2.74843,2.35394 -5.57598,5.08346 -1.38898,1.34055 -1.3252,3.45118 -7.7622,1.34882 -0.667323,-0.218504 -4.69134,-1.81181 -5.02677,-2.04331zm-65.0315 -5.02087c0.413386,-0.496063 1.40079,-1.28622 2.02795,-1.77047 3.80669,-2.93622 8.52992,-5.98819 13.6547,-4.05472 1.5685,0.591732 3.78543,2.02795 4.55197,2.95512l-9.61772 3.41575c-1.05827,0.190157 -1.52953,-0.25748 -2.44606,-0.576378 -3.41693,-1.19055 -5.15197,-0.57874 -8.17087,0.0307087zm74.4508 -3.70039c1.28386,-0.676772 2.10472,-1.87913 4.56496,-2.7815 3.85866,-1.41378 7.77756,0.441732 10.7835,2.59724 0.591732,0.424016 3.53858,2.68346 3.9248,3.30945l-5.67992 -0.550394c-1.6878,0.261024 -3.24567,1.42795 -4.82362,1.05354 -3.08504,-0.732283 -5.55,-2.69173 -7.55079,-3.15 -0.109843,-0.0259843 -0.58937,-0.111024 -0.617717,-0.119291 -0.334252,-0.111024 -0.057874,-0.00354331 -0.362598,-0.172441l-0.238583 -0.186614zm-75.5469 3.71102c0.398031,-4.18701 3.11811,-7.35827 5.70118,-9.86693 1.6748,-1.6252 3.15827,-2.4437 5.42835,-1.30039 1.20709,0.607087 2.94803,3.04016 3.62362,4.1811l-8.55 2.33031c-1.63228,0.681496 -5.77913,4.42323 -6.20315,4.65591zm81.8327 -7.54134c0.627165,-1.19055 2.27244,-3.60945 3.53976,-4.21772 0.842126,-0.405118 2.44488,-0.661417 3.20906,-0.178346 3.05669,1.93465 7.0311,7.00157 7.35,11.439l-2.78268 -2.44134c-3.22677,-2.54528 -6.64488,-4.85079 -11.3161,-4.60157zm-60.8244 -4.94409c1.31693,-0.165354 2.53346,-0.334252 3.80079,-0.582283 1.8874,-0.369685 2.64567,-0.735827 3.59764,-0.0614173 1.94409,1.37717 3.30236,2.16142 4.37598,4.32165 1.26614,2.54528 1.03819,4.6748 0.675591,7.67953 -0.440551,3.64016 -0.414567,4.25315 0.388583,7.58031l-4.90157 -3.22913c-0.661417,-0.512598 -3.90591,-3.39331 -4.0311,-3.85512 -0.264567,-0.974409 0.83622,-5.40827 -3.04843,-10.7161 -0.277559,-0.379134 -0.65315,-0.72874 -0.85748,-1.1374zm-11.4071 -0.0224409c0.329528,-0.266929 1.86732,-0.970866 2.25354,-1.12913 0.818504,-0.336614 2.00787,-0.853937 2.90551,-0.969685l3.79488 1.99606c1.06535,0.157087 1.53071,-0.00472441 2.14724,0.745276 0.336614,0.408661 0.898819,1.16102 1.22244,1.67835 1.47402,2.35984 2.71417,5.5878 2.36929,9.07087 -2.41654,-2.11063 -4.53071,-4.30276 -7.6063,-5.39055 -1.50591,-0.532677 -1.07244,-0.441732 -1.88622,-1.47047 -1.61929,-2.04449 -2.21693,-3.90945 -5.48976,-4.24843l0.28937 -0.282283zm62.9693 9.78307c-0.12874,-2.92441 1.17756,-6.28465 2.45787,-8.20866 3.04606,-4.57913 1.60748,-0.10748 6.42283,-4.32756l5.68346 2.36457c-2.21811,0.766535 -2.77323,0.660236 -4.09134,2.47323 -1.32874,1.82835 -1.50945,2.79213 -3.05787,3.34843 -1.61457,0.579921 -3.00945,1.49409 -4.03346,2.38228l-3.33661 3.00945 -0.0448819 -1.04173zm-9.14409 8.64094c1.8874,-5.27362 -1.17638,-10.089 0.909449,-15.0094 0.968504,-2.28189 2.44724,-3.15236 4.20591,-4.48465 0.685039,-0.519685 0.659055,-0.455906 1.60984,-0.291732 2.13543,0.368504 3.2752,0.713386 5.65039,0.817323 -0.545669,0.737008 -1.03819,1.35 -1.50118,2.15787 -0.420472,0.733465 -0.829134,1.47047 -1.1752,2.32559 -0.702756,1.7374 -1.16102,3.78898 -1.16102,5.84409l-1.31929 3.10157c-0.77126,0.757087 -1.33228,1.23661 -2.19685,2.07283 -1.0689,1.03465 -3.57638,2.84646 -5.02205,3.46654zm-21.437 2.45669c-1.88622,0.0023622 -6.5315,-0.49252 -7.30866,-1.7315 -1.33701,-2.13071 -0.897638,-5.33504 -0.588189,-7.93583 0.357874,-2.99764 0.526772,-5.19803 -0.758268,-7.7563 -1.52244,-3.02835 -3.82559,-3.73819 -4.36181,-4.51654l7.05472 1.99016c1.54016,1.00866 3.04252,2.79449 3.96496,4.87795 1.56142,3.52795 1.90039,7.59331 1.59803,11.5488 -0.3,3.91535 -0.511417,2.03858 0.399213,3.52323zm12.3035 -0.566929c0.0188976,-0.0401575 0.0531496,-0.0874016 0.0720472,-0.113386 0.382677,-0.522047 0.377953,-0.338976 0.499606,-0.633071 0.131102,-0.314173 -0.17126,-2.24764 -0.218504,-2.93268 -0.608268,-8.95394 2.06575,-18.7039 13.5579,-18.2669l-0.712205 0.588189c-4.60984,3.42756 -4.93701,6.33425 -4.22362,12.3437 0.239764,2.02913 0.57874,6.65669 -1.01575,7.69843 -1.67008,1.09134 -5.71417,1.39016 -7.95945,1.31575zm33.0331 -21.2386c-1.57323,-0.903543 -3.55276,-1.84843 -5.54291,-2.39882l-2.75433 -8.60787c0.0625984,1.89449 1.02283,3.67087 0.16063,5.77559 -0.716929,1.75157 -2.73071,1.78937 -4.92992,1.63346 -4.70906,-0.335433 -9.19961,-3.47598 -16.128,0.861024 -2.43307,1.52244 -5.14961,4.18346 -6.45236,6.67323 -0.928346,1.7752 -1.05,2.73543 -1.68661,4.70906l-3.8185 0.0283465c-1.40669,-3.49488 -1.89803,-5.64921 -4.73976,-8.23583 -1.99724,-1.81772 -4.64528,-3.88937 -8.37402,-4.60394 -4.77165,-0.915354 -7.22717,0.805512 -11.4579,1.15866 -6.95315,0.57874 -4.86496,-4.16575 -4.59094,-7.41024 -2.45079,3.6 -3.91772,4.71142 -2.75197,8.71535l-5.50984 2.36575c-4.54724,2.30906 -9.40276,8.24409 -9.54331,14.1213 2.50512,-0.832677 4.29567,-1.63701 7.04291,-1.4315 2.6185,0.196063 4.57441,1.29921 6.16772,2.38465 1.36772,0.933071 3.40276,2.83465 4.5248,4.02047l4.1315 4.26024c1.38898,1.3748 2.79213,2.72953 4.62874,3.9189 1.7752,1.14921 3.20079,2.06457 5.43189,2.96575 3.3189,1.34055 7.27205,1.95472 10.8685,0.833858 1.14803,-0.357874 1.97362,-0.86811 2.87126,-1.19291 0.484252,0.976772 2.57953,5.02205 3.51969,5.20866 3.31772,-3.75591 2.81575,-4.56496 3.82677,-6.16417 2.3563,1.17874 3.46299,1.95118 6.26811,2.15197 4.56732,0.328346 9.22087,-1.77047 12.6283,-4.23071 2.56654,-1.85315 4.54252,-3.83504 6.59291,-6.06732 0.373228,-0.406299 0.601181,-0.772441 0.976772,-1.16693 0.385039,-0.406299 0.635433,-0.58937 0.985039,-0.993307 4.41024,-5.10236 9.86339,-8.61614 17.0138,-4.99488 -0.972047,-3.75591 -1.10787,-5.9374 -3.0815,-8.6622 -0.66378,-0.916535 -1.0937,-1.37362 -1.82717,-2.13543 -1.28858,-1.33937 -2.57008,-2.40945 -4.45039,-3.49016z"/>
    <polygon id="_273166424" class="fil2" points="72.2551,1.15512 77.3575,2.80512 82.1492,4.61102 87.5929,6.81496 92.2465,8.90197 97.1906,11.276 101.622,13.5803 107.069,16.7728 111.685,19.7894 116.8,23.478 120.37,26.3386 124.981,30.3189 129.163,34.3866 136.594,42.9106 143.479,52.6429 143.477,57.9756 143.23,63.0638 142.802,68.8902 142.244,73.9335 141.501,79.3406 140.665,84.2421 139.293,90.378 137.833,95.6728 135.883,101.648 134.249,105.906 131.865,111.495 129.267,116.705 123.405,126.364 116.22,135.879 111.117,137.524 106.173,138.863 100.465,140.261 95.4661,141.291 90.0626,142.259 85.115,142.983 78.8197,143.582 73.3016,143.838 66.9815,143.843 62.4024,143.613 56.3173,143.087 50.5299,142.24 39.4748,139.685 28.1504,135.834 24.998,131.518 22.1894,127.258 19.089,122.295 16.5591,117.887 13.9618,113.079 11.7402,108.626 9.22087,102.86 7.27087,97.7232 5.31378,91.7504 4.1185,87.3508 2.74134,81.437 1.76339,75.7039 0.79252,64.4657 0.977953,52.5697 4.13386,48.2575 7.34291,44.2854 11.1331,39.8209 14.5689,36.0673 18.3673,32.1272 21.9413,28.65 26.6811,24.4878 30.9933,21.0567 36.1039,17.361 39.9437,14.8713 45.1783,11.7425 50.361,9.04606 60.815,4.65591 "/>
    <polygon id="_273166280" class="fil3" points="72.2362,3.56693 76.5886,4.9748 81.3024,6.75118 86.6799,8.92913 91.2673,10.9854 96.1512,13.3299 100.498,15.5906 105.846,18.7252 110.37,21.6815 115.394,25.3051 118.884,28.102 123.412,32.0102 127.476,35.9634 134.77,44.3291 141.165,53.3705 141.163,57.9201 140.92,62.9244 140.499,68.6811 139.948,73.6524 139.214,78.9933 138.394,83.8004 137.047,89.824 135.617,95.0138 133.702,100.883 132.103,105.046 129.762,110.535 127.237,115.598 121.485,125.076 114.81,133.916 110.456,135.32 105.592,136.637 99.9531,138.018 95.0256,139.032 89.6882,139.989 84.8362,140.7 78.6555,141.288 73.2461,141.54 67.0394,141.543 62.5606,141.319 56.5866,140.802 50.961,139.98 40.1138,137.472 29.5925,133.893 26.9031,130.212 24.1394,126.02 21.0768,121.117 18.5823,116.773 16.0181,112.024 13.8378,107.656 11.3657,101.995 9.45354,96.9614 7.53189,91.0949 6.3626,86.7921 5.01142,80.9846 4.06063,75.4122 3.10748,64.3843 3.27992,53.3339 5.97165,49.6535 9.12874,45.7465 12.874,41.3362 16.2602,37.6358 20.0114,33.7441 23.5181,30.3343 28.1705,26.2476 32.3976,22.885 37.4173,19.2555 41.172,16.8201 46.311,13.748 51.3496,11.1272 61.6075,6.8185 "/>
    <polygon id="_273166160" class="fil4" points="72.2161,5.97874 75.8209,7.14449 80.4567,8.89134 85.7681,11.0421 90.2882,13.0701 95.1118,15.3839 99.3732,17.6008 104.622,20.6776 109.055,23.5736 113.988,27.1311 117.399,29.8665 121.844,33.7016 125.791,37.5413 132.945,45.7465 138.852,54.0969 138.85,57.8634 138.611,62.785 138.195,68.4709 137.652,73.3701 136.926,78.6449 136.123,83.3575 134.8,89.2701 133.398,94.3559 131.519,100.119 129.957,104.187 127.659,109.574 125.206,114.491 119.564,123.789 113.399,131.954 109.794,133.116 105.011,134.411 99.4417,135.775 94.5862,136.775 89.315,137.72 84.5563,138.417 78.4902,138.993 73.1917,139.24 67.0972,139.244 62.7189,139.024 56.8559,138.517 51.3921,137.718 40.7516,135.259 31.0346,131.954 28.8071,128.906 26.0906,124.783 23.0646,119.941 20.6067,115.659 18.0744,110.969 15.9366,106.687 13.5106,101.132 11.6374,96.1984 9.75,90.4382 8.60669,86.2335 7.28031,80.5335 6.35669,75.1217 5.42244,64.3039 5.58189,54.0969 7.81063,51.0508 10.9146,47.2087 14.6138,42.8516 17.9516,39.2055 21.6567,35.3622 25.0937,32.0185 29.6598,28.0075 33.802,24.7134 38.7307,21.1488 42.4016,18.7689 47.4449,15.7535 52.3382,13.2083 62.4012,8.98228 "/>
    <g>
     <g>
      <g>
       <g>
        <path id="_273166136" class="fil2" d="M75.2067 97.9783c-0.688583,-0.799606 -1.41142,-1.74685 -1.79173,-2.73425 -0.232677,-0.603543 -0.26811,-1.05236 -0.340157,-1.6748 -0.0401575,-0.337795 0.0153543,-0.66378 0.183071,-0.962598 0.362598,-0.646063 1.08661,-0.911811 1.65,-1.33583 0.292913,-0.220866 0.511417,-0.462992 0.579921,-0.833858 0.270472,-1.4622 0.356693,-2.94213 0.474803,-4.42087 0.230315,-2.88071 0.6,-5.94921 1.4752,-8.71063 0.817323,-2.57835 2.01024,-4.57205 4.06772,-6.36378 4.21535,-3.66969 10.0358,-4.88031 15.4925,-5.05748 1.08898,-0.0366142 2.18268,-0.0141732 3.26929,0.0555118 1.95,0.125197 4.03465,0.401575 5.91142,0.95315 2.37756,0.69685 4.94291,1.89567 6.9189,3.37559 0.989764,0.740551 1.84606,1.59331 2.67874,2.50039 0.917717,0.998031 1.64173,1.82008 2.29252,3.02362 0.24685,0.457087 0.516142,0.903543 0.76063,1.36063 0.266929,0.498425 0.477165,0.995669 0.661417,1.52835 0.255118,0.73937 0.611811,1.43858 0.855118,2.18858 0.102756,0.316535 0.207874,0.635433 0.295276,0.956693 0.102756,0.379134 0.201969,0.872835 -0.258661,1.08898 -0.152362,0.0708661 -0.272835,0.0673228 -0.385039,0.0425197 -0.405118,-0.0874016 -0.843307,-0.232677 -1.24016,-0.35315 -0.277559,-0.0826772 -0.555118,-0.167717 -0.835039,-0.239764 -0.290551,-0.0732283 -0.584646,-0.132283 -0.87874,-0.188976 -0.413386,-0.080315 -0.83622,-0.140551 -1.25433,-0.187795 -0.451181,-0.0496063 -0.956693,-0.0968504 -1.41024,-0.0744094 -0.660236,0.0330709 -1.33465,0.0496063 -1.99134,0.133465 -0.628346,0.080315 -1.20709,0.231496 -1.8,0.45 -3.76063,1.38661 -5.90197,3.94134 -8.25945,6.99449 -0.759449,0.983858 -1.55787,1.94173 -2.39055,2.86654 -0.837402,0.928346 -1.71496,1.83189 -2.64213,2.67402 -0.818504,0.744094 -1.70197,1.46929 -2.64094,2.05984 -2.06811,1.29921 -4.53425,2.74843 -6.9,3.39213 -0.674409,0.184252 -1.41614,0.274016 -2.11181,0.330709 -0.852756,0.069685 -1.71496,0.0897638 -2.57008,0.0732283 -0.85748,-0.0153543 -1.72087,-0.0685039 -2.57244,-0.174803 -0.69685,-0.0874016 -1.44567,-0.21378 -2.11063,-0.442913 -1.32756,-0.457087 -2.44016,-1.07126 -3.18307,-2.29252z"/>
       </g>
       <path id="_273165824" class="fil0" d="M97.0169 66.4583c-5.30787,0.173622 -11.0197,1.33819 -15.1299,4.91575 -1.97835,1.72323 -3.10984,3.62008 -3.89764,6.10394 -0.84685,2.67047 -1.22835,5.79449 -1.45039,8.58307 -0.121654,1.52126 -0.20315,2.97283 -0.483071,4.47992 -0.303543,1.63937 -2.57008,1.56024 -2.40709,2.96339 0.101575,0.875197 0.0366142,1.83661 2.02913,4.13622 0.662598,1.11732 1.67598,1.66535 2.90079,2.08701 2.08465,0.71811 6.90945,0.778346 9.02244,0.20315 2.25472,-0.614173 4.76339,-2.07992 6.74409,-3.3248 2.44606,-1.53543 5.36339,-4.66417 7.5248,-7.46339 2.16024,-2.79921 4.43858,-5.6811 8.51575,-7.18346 1.47992,-0.545669 2.40709,-0.539764 3.96496,-0.618898 0.733465,-0.0366142 2.00669,0.116929 2.80394,0.271654 0.797244,0.154724 1.01102,0.214961 1.77047,0.444094 0.759449,0.229134 1.08307,0.316535 1.19646,0.340157 0.112205,0.0248031 -0.0814961,-0.595276 -0.325984,-1.35 -0.244488,-0.753543 -0.605906,-1.53425 -0.851575,-2.17795 -0.38622,-1.25197 -0.77126,-1.67008 -1.38425,-2.80394 -0.647244,-1.19528 -1.27441,-1.88858 -2.20984,-2.90787 -0.817323,-0.88937 -1.62874,-1.70197 -2.60079,-2.42835 -1.73386,-1.29803 -4.24134,-2.55236 -6.73346,-3.28465 -2.49331,-0.731102 -5.98583,-1.08307 -8.99882,-0.985039z"/>
       <path id="_273165680" class="fil5" d="M75.7098 90.6319c0.269291,0.284646 0.315354,0.185433 0.881102,0.185433l0.732283 -0.0507874c0.440551,-0.0153543 1.16339,0.0555118 1.55906,-0.00708661 0.292913,-0.0472441 0.444094,-0.034252 0.746457,-0.0377953 0.566929,-0.00708661 1.96654,-0.398031 2.30551,-0.303543 0.0933071,0.0259843 0.198425,0.0708661 0.288189,0.10748 1.87913,0.765354 3.63661,4.79409 5.58189,6.08386 1.72205,1.14094 2.5252,1.1374 4.60039,1.64882l0.153543 -0.242126c-0.227953,-0.38622 -0.266929,-0.263386 -0.682677,-0.390945 -2.1248,-0.651969 -1.97835,-0.272835 -3.95315,-1.57087 -1.16811,-0.766535 -2.71535,-3.56929 -3.97441,-4.81063 -0.184252,-0.180709 -0.304724,-0.385039 -0.51378,-0.559843l-0.624803 -0.499606c0.196063,-0.0885827 0.530315,-0.15 0.753543,-0.224409 0.238583,-0.080315 0.478346,-0.170079 0.722835,-0.255118 0.411024,-0.142913 1.02283,-0.394488 1.4126,-0.590551l2.59134 -1.36654c0.242126,0.011811 0.594094,0.106299 0.842126,0.145276 2.61732,0.412205 5.75197,2.25354 8.51457,2.53583l3.82323 0.191339 0.152362 -0.296457 -0.167717 -0.223228c-0.651969,-0.0767717 -1.57795,0.0188976 -2.24291,-0.0590551 -0.369685,-0.0425197 -0.783071,-0.0212598 -1.35,-0.119291 -2.78386,-0.477165 -4.68189,-1.37717 -7.28386,-2.25 -0.496063,-0.166535 -1.02283,-0.263386 -1.53661,-0.370866 0.0992126,-0.153543 0.388583,-0.304724 0.566929,-0.434646 0.336614,-0.245669 3.53976,-3.18425 3.76654,-3.40984 0.688583,-0.683858 1.3689,-1.36063 2.0563,-2.04449 0.343701,-0.341339 0.733465,-0.630709 1.07835,-0.973228l1.05236 -0.998031c0.575197,-0.0673228 1.21063,-0.0188976 1.74685,0.0885827 1.32402,0.265748 2.84055,0.96378 4.10197,1.47165l5.31024 2.13425 0.238583 -0.153543c-0.0011811,-0.464173 -0.387402,-0.48189 -1.09252,-0.764173 -0.441732,-0.177165 -0.871654,-0.372047 -1.31457,-0.543307 -1.7811,-0.689764 -3.5622,-1.37598 -5.33031,-2.09882 -1.17756,-0.483071 -1.80591,-0.607087 -3.03189,-0.694488 0.426378,-0.537402 1.66063,-1.35827 2.23937,-1.79646 0.666142,-0.50315 2.00787,-1.10669 2.79094,-1.31575 2.19803,-0.583465 3.10984,-0.545669 5.30787,0 1.55551,0.38622 2.9622,1.02402 4.41378,1.74567 0.47126,0.233858 0.887008,0.479528 1.33819,0.713386 0.974409,0.505512 2.89252,1.81299 3.65315,2.50157 0.360236,0.327165 0.731102,0.63189 1.07598,0.974409 0.533858,0.530315 0.422835,0.483071 1.0748,0.995669l0.186614 -0.196063 0 -0.057874c-0.0200787,-0.184252 -0.0909449,-0.261024 -0.232677,-0.401575 -0.360236,-0.356693 -0.69685,-0.778346 -1.07717,-1.11969 -1.52598,-1.37244 -3.3,-2.64921 -5.17087,-3.57165 -1.44094,-0.712205 -2.48622,-1.26024 -4.04173,-1.7752 -1.14094,-0.376772 -2.37638,-0.685039 -3.57992,-0.772441 -0.464173,-0.034252 -0.956693,0.0153543 -1.42087,0.0484252 0.392126,-0.595276 0.770079,-1.21654 1.14567,-1.82953 0.395669,-0.644882 0.740551,-1.18228 1.29094,-1.73504 0.42874,-0.431102 1.30866,-0.923622 1.91102,-1.0689 0.442913,-0.10748 0.872835,-0.127559 1.31339,-0.20315 0.698031,-0.121654 0.512598,-0.0165354 1.19646,-0.317717l0.00708661 -0.159449 -0.168898 -0.172441c-0.222047,-0.109843 -2.54646,0.320079 -2.85709,0.442913 -2.09646,0.830315 -2.9126,2.53583 -4.01457,4.33346 -0.237402,0.38622 -0.368504,0.814961 -0.79252,0.915354 -2.37402,0.561024 -3.57283,1.52835 -5.40709,2.94921l-2.63386 2.39409c0,-1.33583 -0.00944882,-2.57126 0.206693,-3.83386 0.266929,-1.56378 0.762992,-3.13465 1.55669,-4.48701 0.435827,-0.741732 1.99252,-2.8252 2.55,-3.60709l-0.245669 -0.243307c-0.383858,0.103937 -1.64055,1.95709 -1.92402,2.37874 -0.661417,0.987402 -1.12205,1.54843 -1.58622,2.70709 -0.53622,1.34055 -0.729921,2.43898 -0.979134,3.84331 -0.161811,0.904724 -0.0637795,3.38858 -0.116929,3.68031 -0.0507874,0.270472 -2.6315,2.63858 -3.0248,3.02953 -0.341339,0.340157 -0.744094,0.637795 -1.07717,0.973228 -0.322441,0.325984 -0.692126,0.647244 -1.05236,0.948425 -0.377953,0.315354 -0.733465,0.623622 -1.12677,0.924803l-2.58307 1.52126c0.164173,-0.685039 0.630709,-1.24724 0.685039,-2.72598l0.0496063 -0.778346c-0.0011811,-0.311811 0.0507874,-0.505512 0.0496063,-0.826772l0.0011811 -1.26732c-0.00708661,-0.188976 -0.0448819,-0.196063 -0.0519685,-0.38622 -0.0106299,-0.270472 0.0129921,-0.559843 0.00354331,-0.830315l-0.13937 -2.44134c-0.0791339,-0.494882 -0.00826772,-2.72244 -0.00944882,-3.39685 -0.0011811,-0.491339 0.0838583,-1.06299 0.174803,-1.52953 0.165354,-0.84685 0.65315,-1.56496 1.14567,-2.26772 0.225591,-0.32126 0.56811,-0.624803 0.785433,-0.924803 0.364961,-0.501969 2.88425,-2.71063 3.5374,-3.31181l-0.17126 -0.235039c-0.432283,-0.011811 -0.523228,0.328346 -0.839764,0.559843 -0.240945,0.175984 -0.45,0.392126 -0.695669,0.572835 -0.422835,0.311811 -0.977953,0.811417 -1.35354,1.18583 -0.858661,0.853937 -1.65118,1.66063 -2.29016,2.73661 -0.830315,1.39724 -0.831496,2.53583 -0.831496,4.18701 0,0.582283 -0.0708661,1.98425 0.0188976,2.4626 0.0720472,0.382677 0.00354331,0.788976 0.0685039,1.19646 0.0271654,0.162992 0.0106299,0.447638 0.0106299,0.623622l0.0944882 1.75512c0.0649606,0.545669 0.0212598,1.30276 -0.0425197,1.84961l-0.0555118 1.21063c-0.0165354,0.153543 -0.0649606,0.38622 -0.0897638,0.543307 -0.131102,0.820866 -0.284646,1.14331 -0.592913,1.89331 -0.217323,0.531496 -0.080315,0.420472 -0.603543,0.664961 -1.89449,0.884646 -4.02283,1.34882 -6.1063,1.42559l-1.22244 0.0507874c-0.445276,0 -0.801969,0.0484252 -1.2248,0.0484252 -0.413386,-0.0011811 -0.85748,-0.132283 -0.929528,0.315354l0 0.034252z"/>
      </g>
      <polygon id="_273165560" class="fil2" points="120.605,81.7075 121.22,83.3067 119.614,82.8555 "/>
     </g>
     <g>
      <g>
       <g>
        <path id="_273165464" class="fil2" d="M69.2976 97.9783c0.689764,-0.799606 1.4126,-1.74685 1.79291,-2.73425 0.232677,-0.603543 0.26811,-1.05236 0.340157,-1.6748 0.0389764,-0.337795 -0.0153543,-0.66378 -0.184252,-0.962598 -0.362598,-0.646063 -1.08543,-0.911811 -1.65,-1.33583 -0.291732,-0.220866 -0.510236,-0.462992 -0.57874,-0.833858 -0.271654,-1.4622 -0.356693,-2.94213 -0.474803,-4.42087 -0.230315,-2.88071 -0.6,-5.94921 -1.4752,-8.71063 -0.818504,-2.57835 -2.01142,-4.57205 -4.0689,-6.36378 -4.21535,-3.66969 -10.0358,-4.88031 -15.4925,-5.05748 -1.0878,-0.0366142 -2.1815,-0.0141732 -3.26811,0.0555118 -1.95,0.125197 -4.03465,0.401575 -5.9126,0.95315 -2.37638,0.69685 -4.94291,1.89567 -6.91772,3.37559 -0.990945,0.740551 -1.84606,1.59331 -2.67992,2.50039 -0.916535,0.998031 -1.64055,1.82008 -2.29134,3.02362 -0.248031,0.457087 -0.516142,0.903543 -0.761811,1.36063 -0.265748,0.498425 -0.477165,0.995669 -0.660236,1.52835 -0.255118,0.73937 -0.612992,1.43858 -0.856299,2.18858 -0.101575,0.316535 -0.207874,0.635433 -0.294094,0.956693 -0.102756,0.379134 -0.20315,0.872835 0.258661,1.08898 0.151181,0.0708661 0.271654,0.0673228 0.383858,0.0425197 0.405118,-0.0874016 0.844488,-0.232677 1.24134,-0.35315 0.276378,-0.0826772 0.555118,-0.167717 0.835039,-0.239764 0.290551,-0.0732283 0.584646,-0.132283 0.87874,-0.188976 0.413386,-0.080315 0.835039,-0.140551 1.25315,-0.187795 0.451181,-0.0496063 0.956693,-0.0968504 1.41024,-0.0744094 0.661417,0.0330709 1.33583,0.0496063 1.99134,0.133465 0.628346,0.080315 1.20709,0.231496 1.80118,0.45 3.76063,1.38661 5.90197,3.94134 8.25945,6.99449 0.759449,0.983858 1.55787,1.94173 2.39055,2.86654 0.837402,0.928346 1.71496,1.83189 2.64094,2.67402 0.819685,0.744094 1.70315,1.46929 2.64213,2.05984 2.06811,1.29921 4.53425,2.74843 6.9,3.39213 0.674409,0.184252 1.41496,0.274016 2.11181,0.330709 0.851575,0.069685 1.71496,0.0897638 2.57008,0.0732283 0.856299,-0.0153543 1.72087,-0.0685039 2.57126,-0.174803 0.69685,-0.0874016 1.44685,-0.21378 2.11181,-0.442913 1.32638,-0.457087 2.44016,-1.07126 3.18189,-2.29252z"/>
       </g>
       <path id="_273165152" class="fil0" d="M47.4874 66.4583c5.30787,0.173622 11.0209,1.33819 15.1311,4.91575 1.97835,1.72323 3.10984,3.62008 3.89646,6.10394 0.84685,2.67047 1.22835,5.79449 1.45157,8.58307 0.120472,1.52126 0.20315,2.97283 0.48189,4.47992 0.303543,1.63937 2.57008,1.56024 2.40709,2.96339 -0.101575,0.875197 -0.0366142,1.83661 -2.02913,4.13622 -0.662598,1.11732 -1.67598,1.66535 -2.90079,2.08701 -2.08346,0.71811 -6.90827,0.778346 -9.02244,0.20315 -2.25472,-0.614173 -4.76339,-2.07992 -6.74409,-3.3248 -2.44488,-1.53543 -5.36339,-4.66417 -7.52362,-7.46339 -2.16024,-2.79921 -4.43976,-5.6811 -8.51693,-7.18346 -1.47992,-0.545669 -2.40591,-0.539764 -3.96378,-0.618898 -0.733465,-0.0366142 -2.00669,0.116929 -2.80394,0.271654 -0.797244,0.154724 -1.01102,0.214961 -1.77165,0.444094 -0.759449,0.229134 -1.08189,0.316535 -1.19528,0.340157 -0.113386,0.0248031 0.080315,-0.595276 0.324803,-1.35 0.245669,-0.753543 0.607087,-1.53425 0.852756,-2.17795 0.38622,-1.25197 0.77126,-1.67008 1.38425,-2.80394 0.647244,-1.19528 1.27323,-1.88858 2.20984,-2.90787 0.817323,-0.88937 1.62874,-1.70197 2.59961,-2.42835 1.73386,-1.29803 4.24252,-2.55236 6.73465,-3.28465 2.49213,-0.731102 5.98583,-1.08307 8.99764,-0.985039z"/>
       <path id="_273165008" class="fil5" d="M68.7957 90.6319c-0.270472,0.284646 -0.316535,0.185433 -0.881102,0.185433l-0.733465 -0.0507874c-0.43937,-0.0153543 -1.1622,0.0555118 -1.55906,-0.00708661 -0.291732,-0.0472441 -0.442913,-0.034252 -0.745276,-0.0377953 -0.566929,-0.00708661 -1.96654,-0.398031 -2.30551,-0.303543 -0.0944882,0.0259843 -0.198425,0.0708661 -0.288189,0.10748 -1.88031,0.765354 -3.63661,4.79409 -5.58307,6.08386 -1.72087,1.14094 -2.52402,1.1374 -4.59921,1.64882l-0.154724 -0.242126c0.227953,-0.38622 0.266929,-0.263386 0.683858,-0.390945 2.12362,-0.651969 1.97835,-0.272835 3.95315,-1.57087 1.16811,-0.766535 2.71535,-3.56929 3.97441,-4.81063 0.183071,-0.180709 0.303543,-0.385039 0.51378,-0.559843l0.623622 -0.499606c-0.196063,-0.0885827 -0.529134,-0.15 -0.752362,-0.224409 -0.238583,-0.080315 -0.478346,-0.170079 -0.722835,-0.255118 -0.411024,-0.142913 -1.02283,-0.394488 -1.41378,-0.590551l-2.59134 -1.36654c-0.240945,0.011811 -0.594094,0.106299 -0.840945,0.145276 -2.61732,0.412205 -5.75197,2.25354 -8.51575,2.53583l-3.82323 0.191339 -0.152362 -0.296457 0.168898 -0.223228c0.651969,-0.0767717 1.57677,0.0188976 2.24291,-0.0590551 0.368504,-0.0425197 0.783071,-0.0212598 1.34882,-0.119291 2.78504,-0.477165 4.68189,-1.37717 7.28504,-2.25 0.496063,-0.166535 1.02165,-0.263386 1.53543,-0.370866 -0.0980315,-0.153543 -0.388583,-0.304724 -0.565748,-0.434646 -0.336614,-0.245669 -3.53976,-3.18425 -3.76772,-3.40984 -0.687402,-0.683858 -1.36772,-1.36063 -2.0563,-2.04449 -0.343701,-0.341339 -0.732283,-0.630709 -1.07717,-0.973228l-1.05354 -0.998031c-0.574016,-0.0673228 -1.21063,-0.0188976 -1.74567,0.0885827 -1.32402,0.265748 -2.84055,0.96378 -4.10197,1.47165l-5.31024 2.13425 -0.238583 -0.153543c0,-0.464173 0.387402,-0.48189 1.09252,-0.764173 0.441732,-0.177165 0.870472,-0.372047 1.31339,-0.543307 1.78228,-0.689764 3.56339,-1.37598 5.3315,-2.09882 1.17756,-0.483071 1.80472,-0.607087 3.03189,-0.694488 -0.427559,-0.537402 -1.66063,-1.35827 -2.24055,-1.79646 -0.664961,-0.50315 -2.00787,-1.10669 -2.78976,-1.31575 -2.19803,-0.583465 -3.11102,-0.545669 -5.30787,0 -1.55551,0.38622 -2.96339,1.02402 -4.41378,1.74567 -0.47126,0.233858 -0.888189,0.479528 -1.33937,0.713386 -0.974409,0.505512 -2.89252,1.81299 -3.65197,2.50157 -0.360236,0.327165 -0.731102,0.63189 -1.07598,0.974409 -0.533858,0.530315 -0.424016,0.483071 -1.07598,0.995669l-0.185433 -0.196063 0 -0.057874c0.0200787,-0.184252 0.0909449,-0.261024 0.232677,-0.401575 0.360236,-0.356693 0.69685,-0.778346 1.07598,-1.11969 1.52598,-1.37244 3.30118,-2.64921 5.17087,-3.57165 1.44213,-0.712205 2.4874,-1.26024 4.04173,-1.7752 1.14094,-0.376772 2.37756,-0.685039 3.5811,-0.772441 0.462992,-0.034252 0.956693,0.0153543 1.42087,0.0484252 -0.393307,-0.595276 -0.770079,-1.21654 -1.14685,-1.82953 -0.395669,-0.644882 -0.73937,-1.18228 -1.28976,-1.73504 -0.42874,-0.431102 -1.30866,-0.923622 -1.91102,-1.0689 -0.444094,-0.10748 -0.872835,-0.127559 -1.31339,-0.20315 -0.699213,-0.121654 -0.51378,-0.0165354 -1.19764,-0.317717l-0.00708661 -0.159449 0.168898 -0.172441c0.223228,-0.109843 2.54764,0.320079 2.85827,0.442913 2.09646,0.830315 2.9126,2.53583 4.01457,4.33346 0.23622,0.38622 0.367323,0.814961 0.79252,0.915354 2.37402,0.561024 3.57283,1.52835 5.40591,2.94921l2.63504 2.39409c0,-1.33583 0.00826772,-2.57126 -0.207874,-3.83386 -0.266929,-1.56378 -0.761811,-3.13465 -1.55551,-4.48701 -0.435827,-0.741732 -1.99252,-2.8252 -2.55,-3.60709l0.244488 -0.243307c0.385039,0.103937 1.64173,1.95709 1.92402,2.37874 0.662598,0.987402 1.12205,1.54843 1.58622,2.70709 0.537402,1.34055 0.729921,2.43898 0.980315,3.84331 0.16063,0.904724 0.0637795,3.38858 0.116929,3.68031 0.0496063,0.270472 2.6315,2.63858 3.02362,3.02953 0.34252,0.340157 0.745276,0.637795 1.07717,0.973228 0.323622,0.325984 0.692126,0.647244 1.05354,0.948425 0.376772,0.315354 0.733465,0.623622 1.12677,0.924803l2.58189 1.52126c-0.164173,-0.685039 -0.629528,-1.24724 -0.683858,-2.72598l-0.0507874 -0.778346c0.0023622,-0.311811 -0.0496063,-0.505512 -0.0484252,-0.826772l-0.0023622 -1.26732c0.00708661,-0.188976 0.046063,-0.196063 0.0531496,-0.38622 0.0106299,-0.270472 -0.0141732,-0.559843 -0.00354331,-0.830315l0.138189 -2.44134c0.080315,-0.494882 0.00944882,-2.72244 0.0106299,-3.39685 0,-0.491339 -0.0838583,-1.06299 -0.175984,-1.52953 -0.165354,-0.84685 -0.651969,-1.56496 -1.14567,-2.26772 -0.224409,-0.32126 -0.566929,-0.624803 -0.784252,-0.924803 -0.364961,-0.501969 -2.88425,-2.71063 -3.53858,-3.31181l0.172441 -0.235039c0.432283,-0.011811 0.523228,0.328346 0.838583,0.559843 0.240945,0.175984 0.451181,0.392126 0.69685,0.572835 0.422835,0.311811 0.976772,0.811417 1.35354,1.18583 0.858661,0.853937 1.65118,1.66063 2.29016,2.73661 0.830315,1.39724 0.831496,2.53583 0.831496,4.18701 0,0.582283 0.069685,1.98425 -0.0200787,2.4626 -0.0708661,0.382677 -0.0023622,0.788976 -0.0685039,1.19646 -0.0259843,0.162992 -0.0106299,0.447638 -0.00944882,0.623622l-0.0956693 1.75512c-0.0637795,0.545669 -0.0212598,1.30276 0.0437008,1.84961l0.0555118 1.21063c0.0165354,0.153543 0.0637795,0.38622 0.0897638,0.543307 0.131102,0.820866 0.284646,1.14331 0.591732,1.89331 0.218504,0.531496 0.0814961,0.420472 0.603543,0.664961 1.89449,0.884646 4.02402,1.34882 6.10748,1.42559l1.22244 0.0507874c0.444094,0 0.801969,0.0484252 1.22362,0.0484252 0.413386,-0.0011811 0.85748,-0.132283 0.930709,0.315354l0 0.034252z"/>
      </g>
      <polygon id="_273164936" class="fil2" points="23.8996,81.7075 23.2843,83.3067 24.8917,82.8555 "/>
     </g>
    </g>
    <g>
     <path id="_273164720" class="fil2" d="M72.3484 28.0217c-2.28189,-1.24488 -3.31063,-4.10669 -3.31063,-6.56929 0,-2.53937 1.09252,-5.82756 3.25984,-7.31929l0.329528 -0.226772 0.329528 0.226772c2.16614,1.49291 3.25866,4.77992 3.25866,7.31929 0,2.4626 -1.02874,5.32441 -3.30945,6.56929l-0.27874 0.152362 -0.27874 -0.152362zm6.21024 34.6429c-0.270472,-1.57087 0.0767717,-3.20197 0.744094,-4.63346 0.770079,-1.65472 1.98661,-3.10394 3.41929,-4.23543 0.49252,-0.389764 1.01457,-0.744094 1.55669,-1.06299 1.38543,-0.816142 2.94685,-1.42913 4.52953,-1.73504 1.40315,-0.272835 2.94921,-0.324803 4.32874,0.0897638l0.383858 0.114567 0.0259843 0.398031c0.0944882,1.42913 -0.307087,2.91496 -0.890551,4.21063 -0.657874,1.46339 -1.61102,2.83701 -2.7248,3.99449 -0.434646,0.452362 -0.9,0.876378 -1.3937,1.26614 -1.4315,1.1315 -3.12756,1.98071 -4.92402,2.35394 -1.55315,0.32126 -3.23031,0.28937 -4.70906,-0.327165l-0.292913 -0.122835 -0.0531496 -0.31063zm0.209055 -10.6547c-0.35315,-1.46929 -0.12874,-3.03189 0.412205,-4.42677 0.624803,-1.60984 1.68307,-3.05315 2.96457,-4.21063 0.440551,-0.398031 0.91063,-0.764173 1.40197,-1.09843 2.23701,-1.52362 5.53346,-2.72835 8.26299,-2.1l0.389764 0.0897638 0.0531496 0.394488c0.366142,2.76142 -1.15748,5.90669 -2.89961,7.97244 -0.382677,0.453543 -0.794882,0.883465 -1.23543,1.2815 -1.2815,1.1563 -2.82992,2.06339 -4.50236,2.52638 -1.44921,0.400394 -3.03543,0.472441 -4.47283,-0.0188976l-0.3 -0.102756 -0.0744094 -0.307087zm-2.22992 -8.74606c-0.437008,-1.26024 -0.375591,-2.65157 -0.0200787,-3.92362 0.408661,-1.4622 1.20945,-2.81693 2.23228,-3.9378 0.351969,-0.38622 0.731102,-0.746457 1.1315,-1.08071 1.83071,-1.52598 4.61102,-2.85591 7.05827,-2.53701l0.39685 0.0519685 0.0909449 0.387402c0.558661,2.38937 -0.500787,5.27008 -1.84961,7.22953 -0.295276,0.42874 -0.620079,0.839764 -0.970866,1.2248 -1.02283,1.12205 -2.30079,2.04685 -3.7252,2.5937 -1.23898,0.475984 -2.62559,0.673228 -3.93071,0.36378l-0.309449 -0.0732283 -0.103937 -0.298819zm-2.8122 -8.86654c-0.362598,-1.05591 -0.308268,-2.21811 -0.00708661,-3.28228 0.343701,-1.21417 1.01339,-2.3374 1.86732,-3.26693 1.59449,-1.73622 4.40315,-3.30118 6.82205,-2.97756l0.39685 0.0543307 0.0897638 0.387402c0.458268,1.99252 -0.425197,4.37953 -1.55551,6.00945 -0.24685,0.355512 -0.517323,0.694488 -0.809055,1.01339 -0.853937,0.929528 -1.91929,1.6937 -3.10512,2.14488 -1.03819,0.394488 -2.19803,0.552756 -3.28819,0.290551l-0.309449 -0.0744094 -0.101575 -0.298819zm-8.35748 28.7008c-1.47756,0.616535 -3.15472,0.648425 -4.70787,0.327165 -1.79646,-0.373228 -3.49252,-1.22244 -4.9252,-2.35394 -0.49252,-0.389764 -0.957874,-0.81378 -1.39252,-1.26614 -1.11378,-1.15748 -2.06693,-2.5311 -2.72598,-3.99449 -0.583465,-1.29567 -0.983858,-2.7815 -0.890551,-4.21063l0.0271654 -0.398031 0.382677 -0.114567c1.38071,-0.414567 2.92677,-0.362598 4.32874,-0.0897638 1.58268,0.305906 3.14528,0.918898 4.53071,1.73504 0.542126,0.318898 1.06299,0.673228 1.55669,1.06299 1.43268,1.1315 2.64803,2.58071 3.41929,4.23543 0.667323,1.4315 1.01339,3.0626 0.744094,4.63346l-0.0531496 0.31063 -0.294094 0.122835zm-0.23622 -10.6783c-1.4374,0.491339 -3.02362,0.419291 -4.47283,0.0188976 -1.67244,-0.462992 -3.22087,-1.37008 -4.50236,-2.52638 -0.440551,-0.398031 -0.853937,-0.827953 -1.23543,-1.2815 -1.74213,-2.06575 -3.26575,-5.21102 -2.89961,-7.97244l0.0519685 -0.394488 0.390945 -0.0897638c2.72953,-0.628346 6.02598,0.576378 8.26299,2.1 0.491339,0.334252 0.961417,0.700394 1.40197,1.09843 1.2815,1.15748 2.33976,2.60079 2.96339,4.21063 0.540945,1.39488 0.766535,2.95748 0.413386,4.42677l-0.0744094 0.307087 -0.3 0.102756zm2.19094 -8.78386c-1.30512,0.309449 -2.69173,0.112205 -3.93071,-0.36378 -1.42559,-0.54685 -2.70236,-1.47165 -3.7252,-2.5937 -0.351969,-0.385039 -0.675591,-0.796063 -0.970866,-1.2248 -1.34882,-1.95945 -2.40945,-4.84016 -1.84961,-7.22953l0.0897638 -0.387402 0.398031 -0.0519685c2.44606,-0.318898 5.22756,1.01102 7.05709,2.53701 0.401575,0.334252 0.780709,0.694488 1.13268,1.08071 1.02283,1.12087 1.82362,2.47559 2.23228,3.9378 0.354331,1.27205 0.416929,2.66339 -0.0212598,3.92362l-0.102756 0.298819 -0.309449 0.0732283zm2.81457 -8.86535c-1.09134,0.262205 -2.25118,0.103937 -3.28937,-0.290551 -1.18583,-0.451181 -2.25,-1.21535 -3.10394,-2.14488 -0.292913,-0.318898 -0.562205,-0.657874 -0.809055,-1.01339 -1.13031,-1.62992 -2.01378,-4.01693 -1.55551,-6.00945l0.0897638 -0.387402 0.39685 -0.0543307c2.4189,-0.323622 5.22638,1.24134 6.82205,2.97756 0.853937,0.929528 1.52362,2.05276 1.86732,3.26693 0.301181,1.06417 0.355512,2.22638 -0.00708661,3.28228l-0.102756 0.298819 -0.308268 0.0744094z"/>
    </g>
    <g>
     <path id="_273164456" class="fil6" d="M72.6272 27.5173l0 0 0 0 0 0c1.76457,-0.962598 3.01063,-3.31535 3.01063,-6.06496 0,-2.74961 -1.24606,-5.6315 -3.01063,-6.84685l0 0 0 0 0 0 0 0c-1.76457,1.21535 -3.01063,4.09724 -3.01063,6.84685 0,2.74961 1.24606,5.10236 3.01063,6.06496l0 0z"/>
     <path id="_273164288" class="fil6" d="M79.1291 62.5677l0 0 0 0 0 0c2.5252,1.05236 6.10157,0.381496 9.04961,-1.94646 2.94685,-2.32795 4.98189,-6.0874 4.79173,-8.98465l0 0 0 0 0 0 0 0c-2.79685,-0.838583 -6.94134,0.281102 -9.88819,2.60906 -2.94803,2.32795 -4.41496,5.63858 -3.95315,8.32205l0 0z"/>
     <path id="_273164120" class="fil6" d="M79.3299 51.8764l0.0011811 0 0 0 0 0c2.44252,0.835039 5.76732,-0.0177165 8.39764,-2.38937 2.62913,-2.37283 4.30984,-6.0378 3.94961,-8.75315l0 0 0 0 0 0 0 0c-2.68346,-0.617717 -6.51614,0.692126 -9.14528,3.06496 -2.63031,2.37283 -3.80433,5.57953 -3.20315,8.07756l0 0z"/>
     <path id="_273163952" class="fil6" d="M77.0846 43.0772l0 0 0 0 0 0c2.19449,0.519685 5.01142,-0.500787 7.0937,-2.78504 2.08228,-2.28307 3.23031,-5.60906 2.68583,-7.93819l0 0 0 0 0 0 0 0c-2.38465,-0.31063 -5.60315,1.15039 -7.68543,3.43465 -2.08228,2.28307 -2.82992,5.1685 -2.09409,7.28858l0 0z"/>
     <path id="_273163784" class="fil6" d="M74.2724 34.2118l0 0 0 0 0 0c1.8,0.433465 4.11378,-0.39685 5.82992,-2.26417 1.71614,-1.86732 2.66811,-4.59449 2.22756,-6.50669l0.0011811 0 -0.0011811 0 0 0 0 0c-1.95591,-0.262205 -4.60157,0.927165 -6.31772,2.79449 -1.71614,1.8685 -2.3374,4.23425 -1.73976,5.97638l0 0z"/>
     <path id="_273163616" class="fil6" d="M65.1449 62.5677l0 0 0 0 0 0c-2.5252,1.05236 -6.10276,0.381496 -9.04961,-1.94646 -2.94685,-2.32795 -4.98189,-6.0874 -4.79173,-8.98465l0 0 0 0 0 0 0 0c2.79567,-0.838583 6.94134,0.281102 9.88819,2.60906 2.94803,2.32795 4.41378,5.63858 3.95315,8.32205l0 0z"/>
     <path id="_273163448" class="fil6" d="M64.9429 51.8764l0 0 0 0 0 0c-2.44252,0.835039 -5.7685,-0.0177165 -8.39764,-2.38937 -2.62913,-2.37283 -4.31102,-6.0378 -3.95079,-8.75315l0 0 0 0 0 0 0.0011811 0c2.68346,-0.617717 6.51614,0.692126 9.14528,3.06496 2.62913,2.37283 3.80315,5.57953 3.20197,8.07756l0 0z"/>
     <path id="_273163280" class="fil6" d="M67.1894 43.0772l-0.0011811 0 0 0 0 0c-2.19331,0.519685 -5.01024,-0.500787 -7.09252,-2.78504 -2.08228,-2.28307 -3.2315,-5.60906 -2.68701,-7.93819l0 0 0.0011811 0 0 0 0 0c2.38465,-0.31063 5.60315,1.15039 7.68543,3.43465 2.08228,2.28307 2.82874,5.1685 2.09409,7.28858l0 0z"/>
     <path id="_273162824" class="fil6" d="M70.0016 34.2118l0 0 0 0 0 0c-1.8,0.433465 -4.11378,-0.39685 -5.82992,-2.26417 -1.71614,-1.86732 -2.66811,-4.59449 -2.22874,-6.50669l0 0 0 0 0 0 0 0c1.95709,-0.262205 4.60276,0.927165 6.3189,2.79449 1.71496,1.8685 2.33622,4.23425 1.73976,5.97638l0 0z"/>
    </g>
    <polyline id="_273162752" class="fil7" points="113.53,85.1598 113.4,85.1445 107.787,94.2106 "/>
    <polyline id="_273162728" class="fil7" points="31.0571,85.1598 31.187,85.1445 36.7984,94.2106 "/>
    <g>
     <path id="_273162512" class="fil2" d="M40.3547 101.092c-2.01614,-1.63465 -3.90354,-3.42283 -5.64567,-5.34331l-3.22677 1.97362 -7.81181 -12.6189 8.36693 -0.973228 0.188976 0.333071c2.13543,3.76772 4.80236,7.2248 7.90512,10.2567 8.57244,8.37165 19.9783,13.0583 32.0055,13.0583 12.0272,0 23.4331,-4.68661 32.0043,-13.0583 3.10394,-3.03071 5.77087,-6.48898 7.9063,-10.2567l0.188976 -0.333071 8.36575 0.973228 -7.81063 12.6189 -3.22795 -1.9748c-1.74094,1.92165 -3.62953,3.70984 -5.64449,5.34449l2.10118 3.26575 -14.048 8.93031 -2.55354 -3.96732c-2.95039,1.07835 -5.99882,1.88031 -9.10039,2.39173l0 4.18465 -16.363 0 0 -4.18583c-3.10157,-0.511417 -6.15,-1.3122 -9.10039,-2.39055l-2.55354 3.96732 -14.048 -8.93031 2.10118 -3.26575z"/>
    </g>
    <path id="_273162344" class="fil8" d="M72.137 108.352l0 0c-17.3433,-0.0566929 -32.452,-9.55748 -40.415,-23.6067l-1.8378 0.21378 -5.24528 0.609449 7.03346 11.3622 3.14646 -1.92402c1.95591,2.20039 4.10433,4.22717 6.41929,6.05433l-0.116929 -0.0933071 -2.06929 3.21496 13.0736 8.31142 2.49331 -3.8752 -0.069685 -0.0259843c3.18543,1.20354 6.52559,2.09291 9.98386,2.62913l0 4.10079 7.60394 0 0 0 7.60276 0 0 -4.09961c3.43346,-0.532677 6.75,-1.4126 9.91535,-2.60315l2.49213 3.87402 13.0748 -8.31142 -2.06929 -3.21496c-0.370866,0.294094 -0.745276,0.583465 -1.12441,0.86811 2.70118,-2.02441 5.19094,-4.31575 7.42795,-6.83268l-0.0023622 0.0023622 3.14764 1.9252 7.03346 -11.3622 -5.24528 -0.609449 -1.8378 -0.21378c-7.96417,14.0492 -23.0717,23.55 -40.415,23.6067z"/>
    <path id="_273162224" class="fil2" d="M69.7098 95.0469c-0.00708661,-0.535039 0.229134,-1.88386 0.248031,-2.47913l0.146457 -3.69921c0.0224409,-0.716929 -0.0153543,-7.15394 -0.080315,-7.56732 -0.0555118,-0.362598 0.0153543,-0.715748 -0.0401575,-1.07835 -0.0933071,-0.598819 -0.0673228,-1.34764 -0.165354,-2.0752 -0.178346,-1.32283 -1.77638,-5.03268 -2.56654,-6.20906 -1.20709,-1.79646 -2.7,-3.12402 -4.42559,-4.41142 -1.78228,-1.32992 -3.82677,-2.3374 -6.02362,-2.77323 -2.82283,-0.559843 -5.02205,-0.272835 -7.77638,0.43937 -1.89685,0.490157 -5.79685,1.21063 -7.5378,0.230315 -1.09252,-0.615354 -1.47283,-1.78583 -1.40551,-2.98701 0.0543307,-0.960236 0.351969,-2.88307 0.491339,-3.94134 -0.309449,0.27874 -1.62402,2.23819 -1.92992,2.70591 -1.25906,1.92165 -1.54724,3.29409 -0.979134,5.49094 0.190157,0.733465 0.425197,0.895276 1.03819,1.30394 1.26614,0.845669 1.5189,1.20827 3.04016,1.65118 0.805512,0.235039 1.35827,0.158268 2.16378,0.185433 0.660236,0.0224409 0.0755906,0.120472 1.05591,-0.0141732 1.90276,-0.262205 3.11693,-0.498425 5.00669,-0.864567 0.641339,-0.124016 1.54606,-0.137008 2.20866,-0.13937 1.08071,-0.00354331 4.87323,0.887008 5.80748,1.23661 2.37992,0.892913 3.72638,2.24409 4.9311,4.3937 1.53189,2.73189 2.28543,6.28228 2.2878,9.40748 0.0011811,1.44213 0.00944882,2.01024 -0.0944882,3.41102l-0.204331 2.1378c-0.0496063,0.406299 0.0909449,0.388583 0.362598,0.715748 0.459449,0.552756 1.8378,1.97835 2.21693,2.4685 0.154724,0.200787 2.07283,2.34567 2.22402,2.46142z"/>
    <path id="_273162104" class="fil5" d="M79.4634 76.9488c0.10748,0.154724 0.11811,0.158268 0.318898,0.0980315l0.0023622 -0.256299c-0.132283,0.069685 -0.165354,0.0330709 -0.32126,0.158268z"/>
    <path id="_273161984" class="fil5" d="M34.3146 87.8173c0.140551,0.140551 0.069685,0.11811 0.277559,0.105118 -0.0200787,-0.13937 0.0023622,-0.188976 -0.106299,-0.323622 -0.109843,0.252756 0.0779528,0.0897638 -0.17126,0.218504z"/>
    <path id="_273161864" class="fil5" d="M74.5642 95.0469c0.00590551,-0.535039 -0.229134,-1.88386 -0.249213,-2.47913l-0.146457 -3.69921c-0.0212598,-0.716929 0.0165354,-7.15394 0.080315,-7.56732 0.0566929,-0.362598 -0.0141732,-0.715748 0.0413386,-1.07835 0.0933071,-0.598819 0.0673228,-1.34764 0.165354,-2.0752 0.177165,-1.32283 1.77638,-5.03268 2.56654,-6.20906 1.20709,-1.79646 2.69882,-3.12402 4.42441,-4.41142 1.78346,-1.32992 3.82677,-2.3374 6.0248,-2.77323 2.82283,-0.559843 5.02205,-0.272835 7.77638,0.43937 1.89685,0.490157 5.79685,1.21063 7.5378,0.230315 1.09252,-0.615354 1.47165,-1.78583 1.40433,-2.98701 -0.0531496,-0.960236 -0.351969,-2.88307 -0.490157,-3.94134 0.309449,0.27874 1.62402,2.23819 1.92992,2.70591 1.25787,1.92165 1.54724,3.29409 0.979134,5.49094 -0.190157,0.733465 -0.425197,0.895276 -1.03819,1.30394 -1.26732,0.845669 -1.52008,1.20827 -3.04016,1.65118 -0.805512,0.235039 -1.35827,0.158268 -2.16378,0.185433 -0.660236,0.0224409 -0.0755906,0.120472 -1.05709,-0.0141732 -1.90276,-0.262205 -3.11575,-0.498425 -5.00551,-0.864567 -0.641339,-0.124016 -1.54606,-0.137008 -2.20866,-0.13937 -1.08071,-0.00354331 -4.87323,0.887008 -5.80748,1.23661 -2.3811,0.892913 -3.72638,2.24409 -4.93228,4.3937 -1.53071,2.73189 -2.28425,6.28228 -2.28661,9.40748 -0.0011811,1.44213 -0.00944882,2.01024 0.0944882,3.41102l0.20315 2.1378c0.0507874,0.406299 -0.0897638,0.388583 -0.361417,0.715748 -0.459449,0.552756 -1.83898,1.97835 -2.21693,2.4685 -0.155906,0.200787 -2.07283,2.34567 -2.22402,2.46142z"/>
    <path id="_273161744" class="fil5" d="M64.8106 76.6264c-0.108661,0.154724 -0.11811,0.158268 -0.320079,0.0992126l-0.0011811 -0.25748c0.132283,0.0708661 0.164173,0.034252 0.32126,0.158268z"/>
    <path id="_273161648" class="fil5" d="M109.959 87.4949c-0.140551,0.141732 -0.069685,0.11811 -0.277559,0.106299 0.0200787,-0.140551 -0.0023622,-0.188976 0.106299,-0.323622 0.109843,0.251575 -0.0779528,0.0885827 0.17126,0.217323z"/>
    <g>
     <path id="_273161576" class="fil2" d="M74.8252 95.328c1.00748,1.08661 1.43622,2.68701 1.57323,4.1185 0.103937,1.09134 -1.29921,3.27283 -1.91693,4.12087 -0.556299,0.764173 -1.25315,1.64409 -1.9937,2.23583l-0.35315 0.281102 -0.350787 -0.282283c-0.73937,-0.596457 -1.43386,-1.46929 -1.99134,-2.23465 -0.618898,-0.849213 -2.02087,-3.02953 -1.91693,-4.12087 0.137008,-1.43268 0.565748,-3.03307 1.57323,-4.12087l0 -16.4079 5.37638 0 0 16.4102z"/>
    </g>
    <g>
     <path id="_273161312" class="fil9" d="M72.137 95.5169l2.21575 0 0 -0.0011811c0.916535,0.897638 1.52598,2.33858 1.57559,3.97559 0.0968504,0.601181 -0.65315,2.18622 -1.82953,3.80079 -0.670866,0.92126 -1.35236,1.6748 -1.90748,2.14488l-0.0543307 0.0448819 -0.0555118 -0.0448819c-0.555118,-0.470079 -1.23543,-1.22362 -1.9063,-2.14488 -1.17638,-1.61457 -1.92638,-3.19961 -1.82953,-3.80079 0.0496063,-1.63701 0.659055,-3.07795 1.57559,-3.97559l0 0.0011811 2.21575 0z"/>
     <rect id="_273161192" class="fil9" x="69.9208" y="79.3867" width="4.4322" height="15.8677"/>
    </g>
    <ellipse id="_273161024" class="fil10" cx="72.1369" cy="99.6189" rx="1.08321" ry="1.07661"/>
    <path id="_273160808" class="fil11" d="M72.137 98.2961c0.367323,0 0.700394,0.147638 0.941339,0.387402 0.240945,0.238583 0.389764,0.570472 0.389764,0.935433 0,0.364961 -0.148819,0.695669 -0.389764,0.935433l0 0 0 0c-0.242126,0.239764 -0.574016,0.387402 -0.941339,0.387402 -0.367323,0 -0.700394,-0.147638 -0.941339,-0.387402l0 0 0 0c-0.240945,-0.239764 -0.389764,-0.570472 -0.389764,-0.935433 0,-0.364961 0.148819,-0.69685 0.389764,-0.935433 0.240945,-0.239764 0.574016,-0.387402 0.941339,-0.387402zm0.733465 0.594094c-0.187795,-0.186614 -0.447638,-0.302362 -0.733465,-0.302362 -0.287008,0 -0.545669,0.115748 -0.733465,0.302362 -0.187795,0.186614 -0.304724,0.444094 -0.304724,0.72874 0,0.284646 0.115748,0.543307 0.303543,0.72874l0.0011811 0.0011811c0.186614,0.186614 0.446457,0.301181 0.733465,0.301181 0.287008,0 0.54685,-0.114567 0.733465,-0.301181l0.0011811 -0.0011811c0.186614,-0.185433 0.302362,-0.444094 0.302362,-0.72874 0,-0.284646 -0.115748,-0.542126 -0.303543,-0.72874z"/>
    <rect id="_273160856" class="fil2" x="71.9846" y="100.787" width="0.304448" height="4.83321" rx="0.11811" ry="0.11811"/>
   </g>
   <g>
    <path id="_273160664" class="fil12" d="M230.654 143.19c3.67795,1.81181 16.487,-0.570472 20.5783,-2.23228 5.52638,-2.24528 10.5602,-5.0126 14.8134,-9.27992 10.278,-10.3146 14.002,-19.4634 14.002,-34.1882 0,-32.1307 0.0602362,-64.0961 -0.173622,-96.222 -1.88268,-0.524409 -7.76339,0.962598 -9.87638,1.67362 -2.27244,0.764173 -5.76614,2.67638 -7.69961,4.20118 -4.71496,3.71811 -8.14252,8.23937 -10.076,14.0197 -2.36693,7.07717 -1.48583,14.9138 -1.48583,22.3217l0 47.9079c0,7.78701 0.355512,16.422 0.00354331,24.1028 -0.454724,9.89291 -4.50236,17.6303 -12.2374,23.4709 -1.11732,0.843307 -2.47205,1.73268 -3.72283,2.37165 -1.14567,0.585827 -3.20197,1.20945 -4.12559,1.85315z"/>
    <path id="_273160544" class="fil13" d="M171.275 104.574c1.54961,-1.96417 2.09528,-8.62205 13.813,-16.435 12.1512,-8.10118 32.2665,-14.1295 46.7835,-14.7496 4.20709,-0.179528 8.80512,-0.147638 10.7799,-4.60276l0.655512 -14.3846c-4.31457,-1.2189 -22.5614,1.80709 -27.6295,3.07559 -8.74961,2.18976 -14.8701,4.5626 -22.7929,8.55472 -9.42283,4.74921 -19.5224,14.0929 -22.2543,24.7736 -0.77126,3.01654 -1.11496,11.1862 0.644882,13.7681z"/>
    <path id="_273160424" class="fil14" d="M185.322 124.55c0.341339,-2.59606 -2.60079,-8.8252 8.00787,-15.9709 8.79567,-5.92559 22.8165,-9.66614 33.6224,-10.4953 1.5685,-0.120472 4.62402,-0.164173 5.96929,-0.415748 3.35787,-0.629528 5.8748,-2.75551 6.62244,-6.15l-0.0106299 -12.437c-4.00157,-1.13031 -20.1307,1.85315 -24.7843,3.02008 -13.05,3.27047 -28.6783,9.39567 -34.7315,22.1598 -4.45276,9.38976 3.79134,19.8673 5.30433,20.289z"/>
    <path id="_273160280" class="fil15" d="M170.172 77.2228c0.343701,-0.0956693 5.23583,-6.03307 6.55866,-7.02638 10.0217,-7.52362 13.3406,-10.5957 27.1724,-15.2079 7.40433,-2.4685 15.0744,-4.25669 22.8201,-5.3315 4.16575,-0.57874 7.23898,-0.796063 8.89134,-5.33268l0.146457 -13.7327c-3.53386,-0.99685 -19.7008,2.19213 -24.1701,3.63425 -7.05945,2.27953 -13.2201,4.63583 -19.5378,8.6185 -5.81811,3.6685 -10.8,7.85787 -14.863,13.2933 -3.80197,5.08465 -8.32441,14.6433 -7.01811,21.085z"/>
    <path id="_273160208" class="fil16" d="M228.738 143.249c-2.33976,-1.15276 -9.4122,-1.03228 -16.0217,-5.69055 -5.87244,-4.13976 -5.87598,-9.2185 -0.0011811,-13.3594 4.80118,-3.38268 10.7421,-4.67362 16.4728,-5.58661 2.97992,-0.473622 5.37047,-1.97126 6.25748,-4.77283l0.315354 -10.3689c-1.76929,-0.499606 -10.9807,0.703937 -13.3441,1.10906 -9.40276,1.60984 -25.4209,6.16535 -28.7256,15.9756 -1.24961,3.71339 0.177165,8.50157 2.4378,11.5323 2.42126,3.24567 4.49291,4.74685 7.93819,6.86575 6.14055,3.77598 17.6102,5.72835 24.6709,4.29567z"/>
   </g>
   <g>
    <ellipse id="_273160064" class="fil17" cx="377.864" cy="72.4992" rx="71.3435" ry="71.3435"/>
    <g>
     <path id="_273159896" class="fil18" d="M376.742 88.6606l5.89961 0c0.995669,0 1.7811,0.0413386 2.35984,0.125197 0.575197,0.0826772 1.02165,0.217323 1.33937,0.399213 0.532677,0.305906 0.902362,0.705118 1.11142,1.20236 0.211417,0.496063 0.25748,1.06654 0.138189,1.71024 -0.115748,0.633071 -0.338976,1.17402 -0.668504,1.62756 -0.329528,0.453543 -0.772441,0.825591 -1.33228,1.12441 -0.467717,0.243307 -0.982677,0.416929 -1.55079,0.519685 -0.56811,0.102756 -1.41496,0.154724 -2.54528,0.154724l-3.29882 0 -0.677953 3.68976 -2.71654 0 1.94173 -10.5531zm16.4067 2.27835l7.22126 0 0.116929 -0.615354 0.0259843 -0.137008 0.33189 -1.7374 -4.87205 0c-2.24528,0 -3.98622,0.452362 -5.22874,1.35709 -0.433465,0.316535 -0.81378,0.694488 -1.14094,1.13268l3.39213 0 0.153543 0zm12.7996 0l7.22126 0 0.11811 -0.615354 0.0259843 -0.137008 0.33189 -1.7374 -4.87205 0c-2.24528,0 -3.9874,0.452362 -5.22874,1.35709 -0.434646,0.316535 -0.81378,0.694488 -1.14094,1.13268l3.54449 0 0 0zm-49.7386 6.47126c-0.46063,0 -0.835039,0.377953 -0.835039,0.844488 0,0.466535 0.374409,0.844488 0.835039,0.844488l3.11339 0c0.46063,0 0.835039,-0.377953 0.835039,-0.844488 0,-0.466535 -0.374409,-0.844488 -0.835039,-0.844488l-3.11339 0zm2.49331 -8.74134c-0.479528,0 -0.866929,0.379134 -0.866929,0.844488 0,0.466535 0.387402,0.844488 0.866929,0.844488l4.95472 0c-0.27874,0.444094 -0.467717,0.980315 -0.56811,1.60748 -0.178346,1.11496 -0.023622,1.89331 0.466535,2.33031 0.494882,0.438189 1.53898,0.654331 3.13346,0.654331l2.69291 0c0.575197,0 0.983858,0.0838583 1.22953,0.250394 0.242126,0.164173 0.335433,0.427559 0.277559,0.785433 -0.057874,0.360236 -0.233858,0.620079 -0.524409,0.784252 -0.291732,0.162992 -0.729921,0.243307 -1.31339,0.243307l-6.57165 0 -0.351969 2.20039 8.04685 0c0.949606,0 1.7752,-0.307087 2.47441,-0.917717 0.699213,-0.614173 1.12795,-1.40906 1.28504,-2.38701 0.161811,-1.01575 -0.0531496,-1.79291 -0.647244,-2.33031 -0.58937,-0.538583 -1.53189,-0.809055 -2.82402,-0.809055l-2.82402 0c-0.507874,0 -0.86811,-0.0767717 -1.08307,-0.230315 -0.210236,-0.153543 -0.291732,-0.393307 -0.239764,-0.720472 0.057874,-0.357874 0.231496,-0.608268 0.523228,-0.747638 0.295276,-0.140551 0.88937,-0.210236 1.78465,-0.210236l5.50512 0 0.351969 -2.20039 -6.69567 0c-0.151181,0 -0.298819,0.0023622 -0.441732,0.00826772l-8.64094 0zm-7.63228 3.02598c-0.46063,0 -0.835039,0.377953 -0.835039,0.843307 0,0.466535 0.374409,0.844488 0.835039,0.844488l9.78307 0c0.46063,0 0.835039,-0.377953 0.835039,-0.844488 0,-0.465354 -0.374409,-0.843307 -0.835039,-0.843307l-9.78307 0zm1.53071 3.12992c-0.461811,0 -0.835039,0.377953 -0.835039,0.844488 0,0.466535 0.373228,0.844488 0.835039,0.844488l7.89567 0c0.46063,0 0.835039,-0.377953 0.835039,-0.844488 0,-0.466535 -0.374409,-0.844488 -0.835039,-0.844488l-7.89567 0zm-4.66181 0c-0.46063,0 -0.833858,0.377953 -0.833858,0.844488 0,0.466535 0.373228,0.844488 0.833858,0.844488l2.29606 0c0.46063,0 0.835039,-0.377953 0.835039,-0.844488 0,-0.466535 -0.374409,-0.844488 -0.835039,-0.844488l-2.29606 0zm3.59646 2.58543c-0.461811,0 -0.835039,0.377953 -0.835039,0.844488 0,0.466535 0.373228,0.844488 0.835039,0.844488l1.55669 0c0.46063,0 0.833858,-0.377953 0.833858,-0.844488 0,-0.466535 -0.373228,-0.844488 -0.833858,-0.844488l-1.55669 0zm40.3583 -4.58976l8.11417 0.00708661 -0.357874 1.87441 -8.13543 0c-0.172441,0.937795 -0.0448819,1.6122 0.388583,2.02205 0.429921,0.409843 1.23898,0.615354 2.4248,0.615354l4.81772 0 -0.357874 1.87441 -4.96063 0c-1.09134,0 -1.93937,-0.0720472 -2.53701,-0.214961 -0.597638,-0.145276 -1.14094,-0.387402 -1.62283,-0.729921 -0.63189,-0.43937 -1.05709,-1.0122 -1.28268,-1.71732 -0.220866,-0.703937 -0.237402,-1.54961 -0.0507874,-2.52874 0.0814961,-0.425197 0.185433,-0.826772 0.31063,-1.20236l3.24921 0zm29.1744 -2.32205l-3.1748 0 -1.22953 6.87756 3.17598 0c1.21299,0 2.09291,-0.24685 2.64094,-0.73937 0.551575,-0.49252 0.94252,-1.39252 1.17638,-2.70118 0.232677,-1.30039 0.162992,-2.20039 -0.211417,-2.69528 -0.372047,-0.494882 -1.16339,-0.741732 -2.37756,-0.741732zm-5.58543 -1.8378l5.96929 0c2.09764,0 3.56811,0.442913 4.40787,1.32992 0.840945,0.88937 1.0937,2.26654 0.76063,4.13386 -0.172441,0.960236 -0.486614,1.78937 -0.946063,2.48031 -0.457087,0.690945 -1.05591,1.25197 -1.80236,1.68307 -0.574016,0.335433 -1.16811,0.572835 -1.77756,0.715748 -0.609449,0.13937 -1.42677,0.210236 -2.45079,0.210236l-6.04724 0 1.88622 -10.5531zm-10.7882 4.15984l8.11299 0.00708661 -0.357874 1.87441 -8.13425 0c-0.172441,0.937795 -0.046063,1.6122 0.387402,2.02205 0.431102,0.409843 1.24016,0.615354 2.42598,0.615354l4.81654 0 -0.357874 1.87441 -4.95945 0c-1.09134,0 -1.93937,-0.0720472 -2.53819,-0.214961 -0.597638,-0.145276 -1.14094,-0.387402 -1.62283,-0.729921 -0.63189,-0.43937 -1.05709,-1.0122 -1.2815,-1.71732 -0.222047,-0.703937 -0.238583,-1.54961 -0.0507874,-2.52874 0.0814961,-0.425197 0.184252,-0.826772 0.309449,-1.20236l3.25039 0zm-22.4362 -2.27835l-3.14764 0 -0.572835 3.11457 3.31299 0c0.822047,0 1.45512,-0.127559 1.90157,-0.385039 0.445276,-0.255118 0.715748,-0.646063 0.812598,-1.17402 0.103937,-0.563386 -0.0177165,-0.962598 -0.36378,-1.2 -0.347244,-0.237402 -0.994488,-0.355512 -1.94291,-0.355512z"/>
     <g>
      <path id="_273159728" class="fil9" d="M328.964 83.576l18.3343 0c0.145276,0.00590551 0.291732,0.00944882 0.438189,0.00944882 0.146457,0 0.292913,-0.00354331 0.438189,-0.00944882l0.754724 0 0 -0.0507874c5.87717,-0.597638 10.4634,-5.56181 10.4634,-11.5972 0,-3.14646 -1.24724,-6.00118 -3.27402,-8.09882 2.01142,-1.90512 3.26575,-4.60157 3.26575,-7.58976 0,-5.77441 -4.68071,-10.4551 -10.4551,-10.4551l-19.9524 0c0.219685,3.79016 3.38858,6.79606 7.26614,6.79606l12.6803 0 0.00590551 0c2.02087,0 3.65906,1.63819 3.65906,3.65906 0,2.02087 -1.63819,3.65906 -3.65906,3.65906l-0.00590551 0 -12.6803 0 0 -3.38268c-4.02047,0 -7.27913,3.2315 -7.27913,7.21654l0 19.8437zm18.7724 -15.7276c2.25236,0 4.07953,1.82717 4.07953,4.07953 0,1.8378 -1.21535,3.39213 -2.88661,3.90236l0 0.240945 -12.8492 0 0 -5.94213 -0.0011811 -0.00590551 0.0011811 -0.00590551 0 -0.17126 0.00590551 0c0.0897638,-1.17283 1.07126,-2.09764 2.26772,-2.09764l0.00590551 0 9.36732 0 0.00944882 0z"/>
      <path id="_273159560" class="fil9" d="M363.794 45.7843l0 19.9606c0,3.98504 3.25866,7.21654 7.27913,7.21654l0 -19.9606c0,-3.98504 -3.25984,-7.21654 -7.27913,-7.21654zm7.28858 30.0236l15.4524 0 0 0.0625984c4.02047,0 7.27913,3.2315 7.27913,7.21654l-30.0106 0c0,-3.98504 3.25866,-7.21654 7.27913,-7.21654l0 -0.0625984z"/>
      <g>
       <path id="_273159392" class="fil19" d="M426.763 45.7843l-7.26614 0c0.219685,3.79016 3.38858,6.79606 7.26614,6.79606l0 -6.79606z"/>
       <path id="_273159272" class="fil9" d="M426.763 83.2996l0 -27.0602c-4.02047,0 -7.27913,3.23031 -7.27913,7.21654l0 12.098 -12.6862 0c-1.67126,-0.510236 -2.88661,-2.06457 -2.88661,-3.90236l0 -18.6508c0,-3.98504 -3.39213,-7.21654 -7.57677,-7.21654l0 26.1815 0.00472441 0c0.155906,5.89252 4.68307,10.6949 10.4587,11.2831l0.754724 0.0507874c6.32362,0.232677 12.848,0 19.2106,0z"/>
      </g>
     </g>
    </g>
   </g>
  </g>
 </g>
</svg>
